<?xml version="1.0" encoding="UTF-8"?>
<svg version="1.1" xmlns="http://www.w3.org/2000/svg" width="512" height="512">
<path d="M0 0 C0.87107895 -0.00953201 1.7421579 -0.01906403 2.63963318 -0.02888489 C3.58234573 -0.02797348 4.52505829 -0.02706207 5.49633789 -0.02612305 C6.94635948 -0.03255074 6.94635948 -0.03255074 8.42567444 -0.03910828 C10.47257707 -0.04485792 12.51950013 -0.04534719 14.56640625 -0.04101562 C17.70290927 -0.03785799 20.83846738 -0.06129901 23.97485352 -0.08666992 C25.96118045 -0.08894303 27.94750992 -0.08964636 29.93383789 -0.08862305 C30.87452621 -0.09783279 31.81521454 -0.10704254 32.78440857 -0.11653137 C33.65863968 -0.11030258 34.53287079 -0.10407379 35.43359375 -0.09765625 C36.20255478 -0.09828568 36.97151581 -0.0989151 37.76377869 -0.0995636 C40.37829207 0.38534517 41.13480094 1.21096406 42.78149414 3.2746582 C43.166255 5.31486034 43.166255 5.31486034 43.18022156 7.69755554 C43.19902878 9.05421326 43.19902878 9.05421326 43.21821594 10.4382782 C43.21606331 11.92289299 43.21606331 11.92289299 43.21386719 13.4375 C43.22405884 14.48157013 43.23425049 15.52564026 43.24475098 16.60134888 C43.27499104 20.05891204 43.28416389 23.51619867 43.29321289 26.97387695 C43.31005138 29.36856515 43.32820048 31.76324447 43.34761047 34.15791321 C43.39520655 40.46584294 43.42495385 46.77373667 43.4510498 53.08178711 C43.48080683 59.51659255 43.5273538 65.95127379 43.57250977 72.38598633 C43.65865222 85.01547621 43.72651879 97.64499619 43.78149414 110.2746582 C44.13282661 109.30129768 44.13282661 109.30129768 44.49125671 108.30827332 C51.23637769 89.62375614 57.9984938 70.94545718 64.78149414 52.2746582 C65.16263367 51.22509949 65.54377319 50.17554077 65.9364624 49.09417725 C67.8146 43.92508284 69.69935527 38.75854173 71.59902954 33.59732056 C72.134064 32.14112658 72.66678872 30.68408171 73.19711304 29.22616577 C73.91931858 27.24249133 74.649883 25.26211255 75.38305664 23.2824707 C75.77831543 22.20626465 76.17357422 21.13005859 76.58081055 20.02124023 C77.74204423 17.36490048 78.76514267 15.35834609 80.78149414 13.2746582 C88.928444 13.01409477 96.47037595 16.43809362 103.9675293 19.31225586 C106.16735149 20.15381175 108.37405093 20.97496997 110.58227539 21.79418945 C111.99027648 22.32555327 113.39784513 22.85806471 114.80493164 23.3918457 C115.46117523 23.63571014 116.11741882 23.87957458 116.79354858 24.13082886 C123.34775168 26.66931536 123.34775168 26.66931536 124.78149414 29.2746582 C124.76836636 37.01605434 121.5296102 44.1273313 118.87133789 51.29418945 C118.37864857 52.6428851 117.88684695 53.99190533 117.39588928 55.3412323 C116.1091565 58.87224072 114.81324633 62.39979941 113.51446533 65.9263916 C111.43054573 71.58701631 109.3568773 77.25136061 107.29055977 82.91843224 C106.56812897 84.89378473 105.83940038 86.86673196 105.11009216 88.83955383 C104.45424889 90.63238045 104.45424889 90.63238045 103.78515625 92.46142578 C103.39734482 93.51429276 103.00953339 94.56715973 102.60997009 95.65193176 C101.6308877 98.29302557 101.6308877 98.29302557 101.78149414 101.2746582 C104.75149414 102.2646582 107.72149414 103.2546582 110.78149414 104.2746582 C111.1648291 103.22487793 111.54816406 102.17509766 111.94311523 101.09350586 C113.36509069 97.20390677 114.79434559 93.31701667 116.22583008 89.4309082 C116.84468707 87.7477211 117.46156017 86.0638032 118.07641602 84.37915039 C118.95989334 81.95956248 119.85044231 79.54268146 120.74243164 77.1262207 C121.0164682 76.370961 121.29050476 75.61570129 121.57284546 74.83755493 C123.55375073 69.50240162 123.55375073 69.50240162 125.78149414 67.2746582 C131.69958588 66.81434008 136.1707156 67.71822054 141.67602539 69.79418945 C142.39006027 70.05342697 143.10409515 70.31266449 143.83976746 70.57975769 C145.33522316 71.12594522 146.82840875 71.67838582 148.31933594 72.23681641 C150.59988849 73.0893617 152.88794837 73.91865775 155.17797852 74.74536133 C156.63615736 75.28112116 158.09385783 75.81818518 159.55102539 76.35668945 C160.23227982 76.60369095 160.91353424 76.85069244 161.61543274 77.10517883 C168.17622782 79.58650084 168.17622782 79.58650084 169.78149414 82.2746582 C170.77772667 89.00242621 168.11028181 94.79755309 165.78540039 101.02856445 C165.3647229 102.1827034 164.94404541 103.33684235 164.51062012 104.5259552 C163.60352218 107.00929842 162.69249061 109.49072916 161.77420044 111.96990967 C160.33442093 115.85750749 158.91251919 119.75150396 157.4921875 123.64624023 C152.91034885 136.19155022 148.25360193 148.7072052 143.53149414 161.20043945 C142.72973337 163.33177555 141.92821276 165.46320202 141.12695312 167.59472656 C139.63155461 171.57279199 138.11529297 175.54201764 136.58642578 179.50732422 C135.91246079 181.29148131 135.23916124 183.07588998 134.56665039 184.8605957 C134.25111206 185.66205521 133.93557373 186.46351471 133.61047363 187.28926086 C132.00780262 191.41914007 132.00780262 191.41914007 132.49682617 195.69580078 C134.03996549 197.59231958 135.68511766 199.0578671 137.59399414 200.5871582 C143.50674313 205.61996995 147.35165942 210.4755597 148.78149414 218.2746582 C149.12985584 225.89388339 148.49680489 233.36043203 147.61807251 240.92121887 C147.49289352 242.04119394 147.36771453 243.16116902 147.23874223 244.31508273 C146.82084405 248.0403289 146.39420736 251.76451958 145.9675293 255.48876953 C145.66484979 258.1702219 145.36265001 260.85172446 145.0610199 263.53329468 C144.32763692 270.0428999 143.58762472 276.55173474 142.84516741 283.06031058 C142.24186066 288.35008477 141.64095052 293.64012614 141.04172897 298.93036461 C140.91354084 300.06204095 140.91354084 300.06204095 140.78276306 301.21657943 C140.60914247 302.7494286 140.43552695 304.28227834 140.26191644 305.81512865 C138.6363288 320.16526905 137.00314954 334.51453762 135.36738174 348.86352064 C133.9645254 361.17102602 132.56835402 373.47927491 131.17700195 385.78808594 C129.55962176 400.09646871 127.93799913 414.40436036 126.30969274 428.71150416 C126.13608617 430.23701231 125.96248551 431.76252113 125.78889084 433.28803062 C125.66078185 434.41380007 125.66078185 434.41380007 125.5300848 435.56231234 C124.92897307 440.84727147 124.33090589 446.13257002 123.73402786 451.4180088 C123.0068245 457.85680421 122.274996 464.29505372 121.53723337 470.73264811 C121.16106544 474.0160674 120.7876815 477.29976059 120.41854286 480.58397865 C120.01799945 484.14437483 119.60947312 487.70376627 119.19888306 491.26301575 C119.08408934 492.30026427 118.96929563 493.33751279 118.85102332 494.40619308 C117.41868212 506.63747022 117.41868212 506.63747022 114.78149414 509.2746582 C112.37722043 509.38029319 110.00124359 509.42070574 107.59614563 509.41941833 C106.8349387 509.42294518 106.07373178 509.42647203 105.28945798 509.43010575 C102.71819386 509.44084766 100.14696672 509.44448349 97.57568359 509.44824219 C95.7393325 509.45454421 93.90298294 509.46130961 92.06663513 509.46850586 C88.09808483 509.48321434 84.12954058 509.49492438 80.1609745 509.50445366 C73.86649952 509.51990197 67.57207494 509.54385916 61.27763367 509.5693512 C43.37278442 509.64053852 25.46790459 509.69999159 7.56298828 509.75146484 C-2.31569691 509.77994017 -12.19433365 509.81542646 -22.07296783 509.85811859 C-27.2939083 509.88033319 -32.5148045 509.89891916 -37.73578453 509.90856743 C-66.50991437 509.91422982 -66.50991437 509.91422982 -95.18431282 512.06873512 C-100.37110057 512.59379803 -105.58048215 512.59847626 -110.78881836 512.6105957 C-111.94771576 512.61901993 -113.10661316 512.62744415 -114.30062866 512.63612366 C-117.9817377 512.65545576 -121.66235563 512.65588408 -125.34350586 512.6496582 C-126.61508545 512.64878204 -127.88666504 512.64790588 -129.19677734 512.64700317 C-169.22985104 512.55634971 -209.40317019 508.16539701 -247.21850586 494.2746582 C-248.48041748 493.81687988 -248.48041748 493.81687988 -249.76782227 493.34985352 C-278.41209173 482.82167982 -306.00837333 467.8008177 -321.21850586 440.2746582 C-322.51748606 437.31042799 -323.5158096 434.43051729 -324.21850586 431.2746582 C-324.40026367 430.50895508 -324.58202148 429.74325195 -324.76928711 428.9543457 C-325.90594714 422.17392152 -326.33183724 414.43878341 -323.65600586 408.0246582 C-322.80000628 404.31217884 -322.80000628 404.31217884 -324.87866211 401.9230957 C-326.47723111 400.19909642 -328.10665052 398.50332788 -329.76147461 396.83325195 C-340.40413275 385.75067471 -342.83911012 372.08719304 -342.68896484 357.3034668 C-342.28775272 344.8691007 -338.11691471 331.91540153 -328.91772461 323.05981445 C-328.17135742 322.40883789 -327.42499023 321.75786133 -326.65600586 321.0871582 C-324.60967492 319.28188512 -324.60967492 319.28188512 -323.21850586 317.2746582 C-323.14817892 314.87885392 -323.71971853 313.14602019 -324.47631836 310.8762207 C-327.89229706 298.90231641 -323.99137951 286.55440877 -318.71850586 275.7746582 C-300.18074325 243.85625491 -259.07752045 228.79359491 -225.46459961 219.68481445 C-197.51156704 212.44178497 -168.43799139 208.40389315 -139.57397461 208.1496582 C-137.65714385 208.12665689 -135.74031443 208.10354402 -133.82348633 208.08032227 C-130.00514774 208.03550929 -126.18981907 208.03345939 -122.37133789 208.05493164 C-120.59772718 208.04089548 -118.82412553 208.02564868 -117.05053711 208.0090332 C-116.23385056 208.02450195 -115.417164 208.0399707 -114.57572937 208.0559082 C-110.06399274 207.97787507 -108.73655656 207.80248173 -105.43603516 204.43969727 C-104.33835815 202.87300293 -104.33835815 202.87300293 -103.21850586 201.2746582 C-100.98022461 199.3762207 -100.98022461 199.3762207 -98.90600586 197.8996582 C-98.20862305 197.39692383 -97.51124023 196.89418945 -96.79272461 196.3762207 C-96.27323242 196.01270508 -95.75374023 195.64918945 -95.21850586 195.2746582 C-103.87386456 170.30420964 -112.9854805 145.50597998 -122.16148376 120.72331238 C-123.81809515 116.24128795 -125.46477939 111.75564267 -127.1114502 107.2699585 C-128.13314669 104.50560986 -129.17331106 101.74905281 -130.21948242 98.99389648 C-130.78469481 97.47436374 -131.34950981 95.95468309 -131.91381836 94.43481445 C-132.16960663 93.77936142 -132.4253949 93.12390839 -132.68893433 92.44859314 C-134.17747305 88.37849601 -134.57652608 85.42893627 -133.21850586 81.2746582 C-131.62890625 79.99829102 -131.62890625 79.99829102 -129.50366211 79.2277832 C-128.68913574 78.91647461 -127.87460938 78.60516602 -127.03540039 78.28442383 C-126.1058252 77.95120117 -125.17625 77.61797852 -124.21850586 77.2746582 C-122.05030419 76.41587103 -119.88235069 75.55645711 -117.71459961 74.6965332 C-115.36296173 73.8026742 -113.01006987 72.91210809 -110.65600586 72.0246582 C-109.47586914 71.56575195 -108.29573242 71.1068457 -107.07983398 70.6340332 C-100.8707684 68.29911878 -95.86600645 66.65017113 -89.21850586 67.2746582 C-85.46857617 74.31015713 -82.71471329 81.61092781 -79.96850586 89.0871582 C-79.50959961 90.31370117 -79.05069336 91.54024414 -78.57788086 92.80395508 C-78.14475586 93.97635742 -77.71163086 95.14875977 -77.26538086 96.35668945 C-76.67515137 97.95347534 -76.67515137 97.95347534 -76.07299805 99.58251953 C-75.21850586 102.2746582 -75.21850586 102.2746582 -75.21850586 105.2746582 C-71.91850586 103.9546582 -68.61850586 102.6346582 -65.21850586 101.2746582 C-67.31826731 93.11320919 -69.92658112 85.30141002 -72.88647461 77.4152832 C-73.78854934 74.9766224 -74.69023053 72.53781599 -75.59155273 70.09887695 C-77.00141828 66.29610175 -78.41630138 62.49524696 -79.83837891 58.69702148 C-81.22062189 55.00336629 -82.58473868 51.30312789 -83.94897461 47.6027832 C-84.37703903 46.47036194 -84.80510345 45.33794067 -85.24613953 44.17120361 C-89.22278056 33.33115803 -89.22278056 33.33115803 -88.21850586 28.2746582 C-84.70869586 25.2493958 -80.07720538 23.92449653 -75.75756836 22.3215332 C-75.04877533 22.05705383 -74.3399823 21.79257446 -73.60971069 21.52008057 C-72.11645288 20.9659635 -70.62209389 20.41480588 -69.12670898 19.86645508 C-66.85197748 19.02778162 -64.58632185 18.16718285 -62.32006836 17.3059082 C-60.86224215 16.7680733 -59.40392376 16.23157019 -57.94506836 15.6965332 C-56.94003769 15.30917999 -56.94003769 15.30917999 -55.91470337 14.91400146 C-51.26874079 13.25014691 -47.83376125 12.33217646 -43.21850586 14.2746582 C-40.93253331 18.04482356 -39.62965816 22.11324644 -38.21850586 26.2746582 C-37.37102427 28.54131411 -36.52028716 30.80675514 -35.66650391 33.07104492 C-34.76824899 35.53116667 -33.87286906 37.99219655 -32.98022461 40.4543457 C-32.49110953 41.79705377 -32.00174933 43.13967258 -31.51216125 44.48220825 C-30.23218559 47.99415026 -28.95550543 51.50728103 -27.67956543 55.02069092 C-26.4061483 58.52535107 -25.12957138 62.02885959 -23.85327148 65.5324707 C-21.72997349 71.36264819 -19.60888423 77.19362444 -17.48969555 83.02529716 C-15.28273551 89.09847934 -13.07453498 95.17121017 -10.86621094 101.24389648 C-10.32680012 102.72723386 -10.32680012 102.72723386 -9.77649212 104.24053764 C-8.92383903 106.58524777 -8.07117743 108.9299548 -7.21850586 111.2746582 C-7.21519571 110.71474497 -7.21188557 110.15483173 -7.20847511 109.57795143 C-7.12732288 95.96613677 -7.03512983 82.35443567 -6.93097878 68.74277687 C-6.88094826 62.16032662 -6.83461895 55.57789296 -6.79663086 48.99536133 C-6.75986327 42.64757379 -6.71352687 36.29992277 -6.66044235 29.95225143 C-6.64185294 27.52568319 -6.62676197 25.09908563 -6.6151619 22.67247391 C-6.59837709 19.28402861 -6.56936113 15.89589912 -6.53735352 12.50756836 C-6.53411324 10.98950844 -6.53411324 10.98950844 -6.5308075 9.44078064 C-6.51964401 8.52088852 -6.50848053 7.6009964 -6.49697876 6.65322876 C-6.491448 5.85126886 -6.48591724 5.04930897 -6.48021889 4.22304726 C-5.9349775 0.16385936 -3.51719471 0.02109584 0 0 Z " fill="#353534" transform="translate(342.218505859375,-0.274658203125)"/>
<path d="M0 0 C1.40236433 -0.00417813 2.80472528 -0.00965827 4.20708001 -0.01631981 C8.0421122 -0.03073044 11.87692869 -0.0265435 15.71197248 -0.019153 C19.85523301 -0.01441272 23.99844746 -0.02693879 28.14169312 -0.03717041 C36.25155553 -0.05434707 44.36134043 -0.05520075 52.47121631 -0.04995751 C59.06464174 -0.04591237 65.65804431 -0.04736345 72.25146866 -0.05270576 C73.66030985 -0.0538284 73.66030985 -0.0538284 75.09761248 -0.05497371 C77.00579563 -0.05650522 78.91397878 -0.05804357 80.82216193 -0.05958868 C98.70794515 -0.07330969 116.5936846 -0.06787889 134.47946681 -0.05640347 C150.83181889 -0.0464721 167.18405781 -0.05941079 183.53639244 -0.08333766 C200.33889664 -0.10773742 217.14134815 -0.11733433 233.94386971 -0.11068493 C243.37243257 -0.10719459 252.80090841 -0.10941256 262.22945786 -0.12693596 C270.25597147 -0.14166892 278.28233679 -0.14227911 286.30884753 -0.12486505 C290.40140421 -0.11636157 294.4936961 -0.11418939 298.58623886 -0.1295166 C302.33805244 -0.14339339 306.08937515 -0.13856269 309.84116055 -0.11927737 C311.82985473 -0.11375905 313.81857408 -0.12776393 315.80722034 -0.14263147 C329.30883999 -0.03227236 339.90031354 4.4576788 349.77151489 13.63768005 C358.24242251 22.61959369 362.0255748 33.13316035 362.52151489 45.38768005 C362.15548322 57.57812606 356.38059891 70.25917044 347.46682739 78.65330505 C344.17778412 81.04729721 340.70313997 82.91554732 337.08401489 84.76268005 C336.40741821 85.10895447 335.73082153 85.45522888 335.03372192 85.81199646 C334.3696936 86.13345642 333.70566528 86.45491638 333.02151489 86.78611755 C332.43241333 87.07148376 331.84331177 87.35684998 331.23635864 87.65086365 C324.03511895 90.11607932 316.18860144 89.53594302 308.68774414 89.53485107 C307.31740819 89.53815405 305.9470732 89.54188053 304.57673943 89.54599255 C300.82092728 89.55597102 297.0651311 89.55972261 293.30930758 89.56238186 C289.25460417 89.56629718 285.19991328 89.57587448 281.1452179 89.58459473 C271.35933791 89.60432225 261.57345696 89.61441961 251.78756207 89.62332252 C247.17486294 89.6277106 242.56216494 89.63307597 237.94946671 89.63831139 C222.60938951 89.65531825 207.269313 89.6698122 191.92922783 89.67706013 C187.95185215 89.67896989 183.97447648 89.68089024 179.99710083 89.68284607 C178.51434157 89.68357168 178.51434157 89.68357168 177.00162758 89.68431195 C160.98999988 89.69261157 144.97844689 89.71794978 128.96685182 89.75042675 C112.5147154 89.78352436 96.06261693 89.80151124 79.61044705 89.80470437 C70.37851455 89.80686672 61.14669109 89.81557531 51.91479111 89.84116554 C44.05262442 89.86290929 36.19059329 89.87090483 28.32839994 89.86119876 C24.32065742 89.85666499 20.31319438 89.85848623 16.30549049 89.87796021 C12.6287573 89.89567092 8.95250585 89.89453099 5.27576698 89.87906291 C3.33218419 89.87558814 1.38859588 89.89165373 -0.55491555 89.90866739 C-14.56699825 89.80690491 -25.91247914 85.96846564 -36.13473511 76.28611755 C-45.92924736 65.94340499 -49.42735819 54.62717888 -49.16598511 40.5947113 C-48.26232382 29.00243137 -42.41331513 18.23014065 -33.91598511 10.38768005 C-22.90900113 2.06573308 -13.64130322 -0.06359341 0 0 Z " fill="#FDB739" transform="translate(59.915985107421875,315.61231994628906)"/>
<path d="M0 0 C1.2684375 0.19464844 2.536875 0.38929688 3.84375 0.58984375 C35.0114522 5.85718542 68.82234472 19.62816328 91 43 C96.68708518 52.10731726 92.32905903 68.51296447 91.0920105 78.68655396 C90.49974189 83.55867278 89.93399552 88.43391194 89.36328125 93.30859375 C89.18878197 94.78863136 89.18878197 94.78863136 89.01075745 96.29856873 C87.9045697 105.71166069 86.91022592 115.13484386 85.9375 124.5625 C84.32982942 140.05737066 82.5957758 155.53499941 80.80508423 171.00967407 C80.13160904 176.83744175 79.47020468 182.6665269 78.8125 188.49609375 C76.76077139 206.67055027 74.67709231 224.8400989 72.5 243 C70.72812745 257.78688147 68.99892767 272.57812111 67.3125 287.375 C67.2098584 288.27154297 67.1072168 289.16808594 67.00146484 290.09179688 C66.70385532 292.69383682 66.40826621 295.29609884 66.11328125 297.8984375 C66.03012161 298.6242099 65.94696198 299.3499823 65.86128235 300.0977478 C64.81412608 309.38991819 63.93065307 318.69346925 63 328 C21.42 328 -20.16 328 -63 328 C-63 327.67 -63 327.34 -63 327 C-62.29359375 326.8040625 -61.5871875 326.608125 -60.859375 326.40625 C-38.27667647 319.82435797 -15.09042883 310.309404 3 295 C3.87785156 294.28328125 4.75570312 293.5665625 5.66015625 292.828125 C16.52449861 283.58606001 26.36913434 270.56784493 28 256 C28.09204865 253.36307678 28.13995883 250.76024684 28.125 248.125 C28.12886719 247.41537109 28.13273438 246.70574219 28.13671875 245.97460938 C28.13001048 242.32866418 27.88628821 239.03108479 27 235.5 C27 232 27 232 28.50390625 230.13671875 C29.91649009 228.7991868 31.35016597 227.48368677 32.80078125 226.1875 C41.63639251 217.39897015 46.08333583 202.64565048 46.25 190.4375 C46.08383423 175.9357605 41.38519542 163.14916647 31 152.8125 C27.10602187 148.69450283 27.10602187 148.69450283 26.65234375 145.72265625 C26.9375 143.375 26.9375 143.375 27.4453125 140.89453125 C29.4119402 130.63205852 28.57672696 120.4093893 24 111 C23.649375 110.24589844 23.29875 109.49179687 22.9375 108.71484375 C14.72475637 92.54600474 0.41301909 81.79469724 -15 73 C-16.093125 72.35417969 -17.18625 71.70835937 -18.3125 71.04296875 C-53.62040796 50.74518591 -97.71580327 42.52320023 -138 40 C-104.02568858 4.98503399 -46.80321024 -7.56271385 0 0 Z " fill="#10DBFD" transform="translate(386,170)"/>
<path d="M0 0 C9.47049519 1.81756978 9.47049519 1.81756978 12.65625 6.36328125 C13.82923697 8.29071211 14.99834368 10.22050841 16.1640625 12.15234375 C24.40737184 24.9382427 37.90922078 30.99492938 51.875 35.62109375 C64.1447617 37.80890052 79.36407334 36.79044288 90 30 C90.886875 29.236875 91.77375 28.47375 92.6875 27.6875 C95 26 95 26 97.40234375 25.9140625 C101.38310211 27.57819908 102.2702541 30.93246088 103.875 34.6875 C107.06510804 41.62739756 109.88605192 46.44302596 117 50 C122.91718526 50.85934226 127.29505749 50.06433109 132.20703125 46.6328125 C136.03838677 43.14369135 138.37575082 38.87274754 140 34 C141.8984375 33.296875 141.8984375 33.296875 144.375 32.75 C149.87305246 31.29857726 153.88665954 28.64957682 158.45703125 25.328125 C161 24 161 24 163.63671875 23.9140625 C167.11618438 25.51289134 167.59706787 27.62564087 169 31.125 C171.65996677 37.32932147 174.0594519 42.39551454 179.1875 46.9375 C183.48879316 48.56243297 187.46444217 48.63541631 192 48 C200.57559243 44.04203426 204.46301189 35.65344452 207.62890625 27.22265625 C209 25 209 25 211.359375 23.98046875 C214.82540567 24.00610507 216.02012691 25.08083048 218.6875 27.25 C222.23061928 29.94951945 224.82343342 31.39847481 229.1875 32.25 C233.86706872 33.40155531 235.32771155 35.36610421 237.8125 39.4375 C238.31394531 40.38496094 238.81539062 41.33242188 239.33203125 42.30859375 C241.54983924 45.88721133 244.24467797 48.12233899 248 50 C253.64673956 50.58726091 258.25632287 50.37328152 263 47 C268.76809744 41.09564829 271.78494156 33.4790012 275 26 C277.83308208 25.77981227 279.50175504 25.69269921 281.95703125 27.20703125 C282.87548828 28.00173828 282.87548828 28.00173828 283.8125 28.8125 C294.30417853 37.1742889 307.17820334 36.54777854 320.01171875 35.83203125 C333.4132887 34.27796106 347.86941997 26.3625162 356.46875 16.03515625 C360.7124354 10.69474335 360.7124354 10.69474335 363.96484375 4.74609375 C365.42372784 2.28525908 366.92231398 2.02219601 369.625 1.25 C370.85089844 0.88648438 370.85089844 0.88648438 372.1015625 0.515625 C372.72804688 0.34546875 373.35453125 0.1753125 374 0 C376.21527126 2.21527126 375.3107798 7.57424673 375.31689453 10.64282227 C375.13597851 20.71046369 370.90229553 28.04538343 365 36 C364.59523438 36.57105469 364.19046875 37.14210938 363.7734375 37.73046875 C345.93362325 60.76900188 312.6717102 71.06999573 286 79 C284.76507813 79.37898438 283.53015625 79.75796875 282.2578125 80.1484375 C263.45489651 85.57653103 243.50622935 88.61222637 224 90 C222.82977295 90.08467529 221.6595459 90.16935059 220.45385742 90.2565918 C170.95348641 93.61646703 119.00529923 91.35403468 72 74 C71.20416504 73.71044434 70.40833008 73.42088867 69.58837891 73.12255859 C43.01185318 63.33175202 15.02741978 49.81300849 1.98046875 23.296875 C0.48076852 19.78363302 -0.12655487 16.70524338 -0.09765625 12.890625 C-0.09443359 12.13652344 -0.09121094 11.38242187 -0.08789062 10.60546875 C-0.07951172 9.82816406 -0.07113281 9.05085938 -0.0625 8.25 C-0.05798828 7.45722656 -0.05347656 6.66445313 -0.04882812 5.84765625 C-0.03708565 3.89840492 -0.01915146 1.94919262 0 0 Z " fill="#FDD599" transform="translate(29,410)"/>
<path d="M0 0 C0.9640979 -0.00100708 1.9281958 -0.00201416 2.92150879 -0.00305176 C38.52872594 0.02192545 72.96402739 4.43273531 107.25 14.25 C108.18440918 14.51651367 109.11881836 14.78302734 110.08154297 15.05761719 C135.19231483 22.39252105 158.54542418 33.82376608 177.25 52.25 C177.86875 52.85585938 178.4875 53.46171875 179.125 54.0859375 C186.19870695 61.63859336 190.42773807 71.49997039 190.4375 81.75 C190.44974609 82.42675781 190.46199219 83.10351562 190.47460938 83.80078125 C190.48559396 87.51357044 190.36344616 89.07983076 188.25 92.25 C181.21953563 89.65982892 178.89810783 86.55012612 175.14453125 80.1953125 C166.30199162 66.44835398 151.98952542 59.09183983 136.43457031 55.63671875 C130.3617247 54.56168663 124.38333539 54.77770038 118.25 55.25 C116.73599609 55.35828125 116.73599609 55.35828125 115.19140625 55.46875 C107.73267894 56.39976844 100.61620367 59.88379633 95.25 65.25 C93.58382885 65.29063832 91.91611905 65.292721 90.25 65.25 C89.71890625 64.15300781 89.1878125 63.05601562 88.640625 61.92578125 C87.92740839 60.47119474 87.21384852 59.0167765 86.5 57.5625 C86.15195312 56.84126953 85.80390625 56.12003906 85.4453125 55.37695312 C82.26226705 48.9224443 79.33446656 43.78971443 72.25 41.25 C67.18000125 40.30936943 63.38031735 40.71067969 59.0625 43.625 C55.91733278 46.21404728 54.25219874 48.84610857 52.375 52.4375 C49.89303391 56.94528707 49.89303391 56.94528707 47.0078125 58.3125 C45.31742463 58.73378047 43.6172204 59.1172515 41.91015625 59.46484375 C37.79995597 60.67798656 34.8640746 63.24648809 31.57421875 65.921875 C29.25 67.25 29.25 67.25 26.69921875 67.43359375 C22.91021673 65.60254493 21.95079231 62.24883736 20.375 58.5625 C17.50839357 52.33976634 15.14515926 48.06451482 9.25 44.25 C3.9900944 42.49669813 -0.8523187 42.39418294 -5.9375 44.6875 C-11.93888108 50.15542498 -15.22754213 56.7329 -17.98828125 64.28125 C-18.75 66.25 -18.75 66.25 -19.75 67.25 C-22.63307444 67.54657258 -24.2597807 67.54186467 -26.77734375 66.04296875 C-27.40769531 65.51316406 -28.03804687 64.98335938 -28.6875 64.4375 C-32.82319964 61.14756258 -36.44700805 58.38817952 -41.875 58.0625 C-44.75 57.25 -44.75 57.25 -45.734375 55.66015625 C-46.34627487 54.26191138 -46.95138467 52.86068146 -47.55078125 51.45703125 C-50.12413229 46.72105946 -54.66938494 42.94353835 -59.75 41.25 C-64.28457107 40.87831385 -66.76098664 40.77527359 -70.875 42.75 C-77.16018481 48.2153781 -80.46812058 54.27591086 -83.37890625 62.02734375 C-84.75 64.25 -84.75 64.25 -87.0546875 65.2734375 C-90.67836066 65.2419273 -92.35481781 63.99018903 -95.3125 61.9375 C-106.34850586 54.39138227 -118.17948121 53.99240399 -131.2578125 55.7109375 C-147.10524375 58.95679691 -159.86418371 67.60290027 -169.75 80.25 C-170.76493451 81.86571438 -171.76559032 83.49050846 -172.75 85.125 C-175.6976868 89.79081364 -178.4808547 90.88729001 -183.75 92.25 C-186.61261666 86.52476669 -185.37219732 76.56241739 -184.20703125 70.359375 C-176.93499322 49.73819675 -155.14947551 36.25508647 -136.53710938 27.0625 C-108.55528524 13.73534283 -78.80460123 7.17947172 -48.25 3.0625 C-47.00992188 2.89540527 -45.76984375 2.72831055 -44.4921875 2.55615234 C-29.62880452 0.62462867 -14.97043401 0.01089971 0 0 Z " fill="#FDD599" transform="translate(213.75,218.75)"/>
<path d="M0 0 C0.72960937 -0.02835937 1.45921875 -0.05671875 2.2109375 -0.0859375 C9.67481325 1.33920382 13.65598766 7.80032111 17.9375 13.5 C18.88592773 14.73556641 18.88592773 14.73556641 19.85351562 15.99609375 C24.43747574 21.99995148 24.43747574 21.99995148 25.625 24.375 C27.97354671 24.73220898 27.97354671 24.73220898 30.625 24.375 C32.60785034 22.59125193 32.60785034 22.59125193 34.21875 20.10546875 C35.17587891 18.77225586 35.17587891 18.77225586 36.15234375 17.41210938 C36.80332031 16.47173828 37.45429687 15.53136719 38.125 14.5625 C39.41869254 12.71674659 40.72052201 10.87666397 42.03125 9.04296875 C42.60166016 8.22078857 43.17207031 7.3986084 43.75976562 6.55151367 C46.31384523 3.57119696 48.97380822 1.66790706 52.87109375 0.9765625 C53.95583984 0.98816406 53.95583984 0.98816406 55.0625 1 C55.78308594 0.99226563 56.50367187 0.98453125 57.24609375 0.9765625 C63.11704136 1.95987392 66.50542594 4.91822755 70.0625 9.5 C70.82304688 10.46808594 71.58359375 11.43617188 72.3671875 12.43359375 C73.11226563 13.40425781 73.85734375 14.37492187 74.625 15.375 C75.32882813 16.27347656 76.03265625 17.17195313 76.7578125 18.09765625 C78.390152 20.1826891 80.01225432 22.27480064 81.625 24.375 C84.49133811 24.03617643 86.1725035 23.80819759 88.29077148 21.78027344 C88.77102783 21.10512695 89.25128418 20.42998047 89.74609375 19.734375 C90.28943359 18.99316406 90.83277344 18.25195312 91.39257812 17.48828125 C91.94365234 16.70839844 92.49472656 15.92851562 93.0625 15.125 C102.30302188 2.21656779 102.30302188 2.21656779 107.96875 0.78125 C113.70822854 1.03079255 117.93077901 1.75944239 122.23046875 5.93359375 C127.46963562 11.70027399 132.01573392 18.10388969 136.625 24.375 C139.63311698 24.06081889 140.5348127 23.47887971 142.5546875 21.15234375 C143.19664062 20.21519531 143.83859375 19.27804687 144.5 18.3125 C145.19480469 17.32121094 145.88960937 16.32992188 146.60546875 15.30859375 C147.60513672 13.85646484 147.60513672 13.85646484 148.625 12.375 C155.13197104 3.04682473 155.13197104 3.04682473 159.625 1.375 C164.23102312 0.69865088 167.38239347 0.69190044 171.53125 2.97265625 C175.1042773 5.74716609 177.82523257 8.7709601 180.6875 12.25 C181.19087891 12.84941406 181.69425781 13.44882812 182.21289062 14.06640625 C183.69124858 15.82972583 185.15895509 17.60143838 186.625 19.375 C187.58153581 20.52385018 188.53853216 21.67231716 189.49609375 22.8203125 C190.54990234 24.08488281 190.54990234 24.08488281 191.625 25.375 C194.3060582 25.01264563 195.41404581 24.60522013 197.26904297 22.58081055 C197.79643066 21.81551025 198.32381836 21.05020996 198.8671875 20.26171875 C199.75470703 19.0077832 199.75470703 19.0077832 200.66015625 17.72851562 C201.26730469 16.84873047 201.87445313 15.96894531 202.5 15.0625 C211.32121354 2.28596813 211.32121354 2.28596813 217.96875 0.87890625 C218.6803125 0.89824219 219.391875 0.91757812 220.125 0.9375 C220.8365625 0.93878906 221.548125 0.94007813 222.28125 0.94140625 C230.01669911 2.37246434 233.40440924 7.39091094 237.8125 13.375 C239.03347578 15.00126303 240.25607028 16.62631232 241.48046875 18.25 C242.01309326 18.96929687 242.54571777 19.68859375 243.09448242 20.4296875 C244.50427541 22.2215571 245.97633817 23.80384596 247.625 25.375 C251.87702296 23.8079399 254.23154717 20.59545064 257 17.1875 C257.48605713 16.60250732 257.97211426 16.01751465 258.47290039 15.41479492 C260.50775633 12.96500931 262.52322059 10.49988271 264.53515625 8.03125 C267.71143536 4.19696934 269.98122629 1.88307216 274.921875 0.93359375 C279.54852104 0.70520836 282.85670372 0.94856706 286.5625 3.875 C292.5697688 9.80825728 297.02954666 17.33821207 301.625 24.375 C304.49133811 24.03617643 306.1725035 23.80819759 308.29077148 21.78027344 C308.77102783 21.10512695 309.25128418 20.42998047 309.74609375 19.734375 C310.56110352 18.62255859 310.56110352 18.62255859 311.39257812 17.48828125 C312.21918945 16.31845703 312.21918945 16.31845703 313.0625 15.125 C322.38022471 2.10872026 322.38022471 2.10872026 328.40625 0.74609375 C329.3034375 0.76800781 330.200625 0.78992188 331.125 0.8125 C332.0221875 0.81121094 332.919375 0.80992187 333.84375 0.80859375 C340.5610967 2.17659273 344.29041423 6.98953253 348.1875 12.1875 C348.87102539 13.07405273 348.87102539 13.07405273 349.56835938 13.97851562 C350.93791287 15.76497445 352.28309036 17.56771347 353.625 19.375 C354.34514282 20.32064819 354.34514282 20.32064819 355.07983398 21.28540039 C358.63221286 26.05042117 358.63221286 26.05042117 358.5625 29.1875 C357.625 31.375 357.625 31.375 355.625 33.375 C352.421875 33.5234375 352.421875 33.5234375 348.625 32.375 C345.9634719 29.87328307 343.95304804 26.99238918 341.875 24 C340.75680508 22.44936814 339.6370698 20.89984562 338.515625 19.3515625 C337.78907715 18.31636475 337.78907715 18.31636475 337.04785156 17.26025391 C335.0652681 14.5929291 335.0652681 14.5929291 332.625 12.375 C330.56582389 12.29970831 330.56582389 12.29970831 328.625 13.375 C326.92571416 15.18203191 326.92571416 15.18203191 325.453125 17.48828125 C324.57914062 18.7422168 324.57914062 18.7422168 323.6875 20.02148438 C322.48954909 21.78355657 321.29673832 23.54913549 320.109375 25.31835938 C316.32890627 30.71962117 313.02898459 34.35504764 306.625 36.375 C302.08690825 37.00094369 298.95542301 36.7115259 295.22265625 33.89453125 C289.49107517 28.44322309 285.05639076 21.82316876 281.14453125 14.9921875 C279.70442197 13.17989604 279.70442197 13.17989604 277.2890625 12.72265625 C273.21476285 13.720322 271.52137902 16.68473549 269.1875 19.9375 C268.21958788 21.2258903 267.250846 22.51365769 266.28125 23.80078125 C265.82234375 24.42033691 265.3634375 25.03989258 264.890625 25.67822266 C257.35501595 35.78093927 257.35501595 35.78093927 251.07421875 36.78125 C250.16285156 36.8121875 249.25148438 36.843125 248.3125 36.875 C247.40886719 36.9265625 246.50523437 36.978125 245.57421875 37.03125 C237.26074745 35.181365 232.49613658 26.43283358 227.98828125 19.85742188 C227.24771484 18.82004883 227.24771484 18.82004883 226.4921875 17.76171875 C226.06019043 17.13483154 225.62819336 16.50794434 225.18310547 15.86206055 C223.13328409 13.90570486 221.38891974 13.71838199 218.625 13.375 C218.2218457 13.89932617 217.81869141 14.42365234 217.40332031 14.96386719 C215.56350039 17.35320254 213.71929927 19.73912078 211.875 22.125 C210.92367187 23.3625 210.92367187 23.3625 209.953125 24.625 C209.025 25.82382812 209.025 25.82382812 208.078125 27.046875 C207.51254883 27.7800293 206.94697266 28.51318359 206.36425781 29.26855469 C203.04323396 33.2907043 200.76724421 36.0450914 195.35546875 36.61328125 C189.49211763 36.78440824 186.12012347 36.48755977 181.625 32.375 C177.21946496 27.39378706 173.18783049 22.19409302 169.375 16.75 C167.44901563 14.11387614 166.93867827 13.48410549 163.75 12.375 C163.04875 12.375 162.3475 12.375 161.625 12.375 C161.27695312 13.13296875 161.27695312 13.13296875 160.921875 13.90625 C159.10547432 17.36397659 157.0080403 20.60560787 154.875 23.875 C154.45734375 24.53886719 154.0396875 25.20273437 153.609375 25.88671875 C150.82517337 30.13941697 148.24774799 32.98887264 143.625 35.375 C140.80859375 35.87109375 140.80859375 35.87109375 138.0625 35.8125 C137.15371094 35.81121094 136.24492187 35.80992187 135.30859375 35.80859375 C131.23441869 35.15032092 128.52302197 33.4306456 125.8515625 30.2902832 C125.32304687 29.50999756 124.79453125 28.72971191 124.25 27.92578125 C123.65703125 27.07822266 123.0640625 26.23066406 122.453125 25.35742188 C121.22890646 23.56948732 120.01019392 21.77777092 118.796875 19.98242188 C118.20390625 19.13873047 117.6109375 18.29503906 117 17.42578125 C116.47148437 16.64887939 115.94296875 15.87197754 115.3984375 15.0715332 C113.71921641 13.16577041 113.71921641 13.16577041 111.13647461 12.85498047 C107.73961607 13.55832534 107.01522901 14.81552315 105.06640625 17.64453125 C104.43283203 18.53333984 103.79925781 19.42214844 103.14648438 20.33789062 C102.50001953 21.27826172 101.85355469 22.21863281 101.1875 23.1875 C92.71480904 35.43338533 92.71480904 35.43338533 85.28125 36.80859375 C84.21390625 36.81052734 84.21390625 36.81052734 83.125 36.8125 C82.4134375 36.83183594 81.701875 36.85117187 80.96875 36.87109375 C73.55981898 35.30287002 69.55557198 28.93982686 65.25 23.25 C64.60933594 22.42628906 63.96867187 21.60257812 63.30859375 20.75390625 C58.625 14.65225213 58.625 14.65225213 58.625 12.375 C52.05803634 13.58340055 49.68708193 17.60983905 46.0625 22.75 C37.75523705 34.33158765 37.75523705 34.33158765 31.625 36.375 C26.83705273 36.76745469 23.2417777 37.0198541 19.25 33.9609375 C15.3106667 30.11629972 11.99567037 25.71371757 8.625 21.375 C7.56925781 20.02921875 7.56925781 20.02921875 6.4921875 18.65625 C4.86084642 16.56919016 3.23834633 14.47598156 1.625 12.375 C-2.79805638 12.77897939 -4.94570384 15.7906766 -7.6875 18.9375 C-8.41380615 19.74525879 -8.41380615 19.74525879 -9.15478516 20.56933594 C-11.31935413 22.98690648 -13.42245557 25.43323692 -15.47265625 27.94921875 C-16.05917969 28.66722656 -16.64570312 29.38523437 -17.25 30.125 C-17.74242187 30.75921875 -18.23484375 31.3934375 -18.7421875 32.046875 C-20.375 33.375 -20.375 33.375 -22.95703125 33.65234375 C-25.375 33.375 -25.375 33.375 -27.1875 32.1875 C-28.88697528 29.59356405 -28.86751415 28.46595089 -28.375 25.375 C-26.61268358 22.70460056 -24.4791369 20.40951805 -22.3125 18.0625 C-21.71703369 17.39968018 -21.12156738 16.73686035 -20.50805664 16.05395508 C-19.33133322 14.74429033 -18.15036958 13.43842083 -16.96484375 12.13671875 C-14.51341887 9.42027497 -12.18017144 6.60508664 -9.83984375 3.79296875 C-6.89821069 0.94546795 -4.03835813 0.07084839 0 0 Z " fill="#373533" transform="translate(51.375,341.625)"/>
<path d="M0 0 C8.58 0 17.16 0 26 0 C26.06775811 18.00246007 26.1230057 36.00481108 26.15543652 54.00736332 C26.1708959 62.36652763 26.19196764 70.72560701 26.22631836 79.0847168 C26.25624918 86.37174504 26.27558175 93.65871176 26.28226548 100.94579977 C26.28617152 104.80316278 26.29533177 108.6603498 26.31719017 112.51765633 C26.33761362 116.15131804 26.34382205 119.78473192 26.33932304 123.41844559 C26.34053666 125.38164182 26.35664809 127.34481131 26.3732605 129.30793762 C26.36913651 130.48712769 26.36501251 131.66631775 26.36076355 132.88124084 C26.36352893 133.89982209 26.36629431 134.91840334 26.36914349 135.96785069 C26 139 26 139 23 146 C16.73 146 10.46 146 4 146 C-0.15494959 138.30778669 -0.55375858 132.05519703 -0.45410156 123.40209961 C-0.4529712 122.05103591 -0.45361062 120.69996975 -0.45587158 119.34890747 C-0.45701232 115.70677537 -0.43360814 112.06517758 -0.40557575 108.4231689 C-0.38045429 104.60754451 -0.37821168 100.79190588 -0.37347412 96.97621155 C-0.36107572 89.76216148 -0.32829702 82.54835587 -0.28807616 75.33441311 C-0.24326034 67.1167412 -0.22134683 58.8990572 -0.20129442 50.68129337 C-0.15956119 33.78736353 -0.08624856 16.89377014 0 0 Z " fill="#FED69A" transform="translate(347,11)"/>
<path d="M0 0 C0.22898483 0.63763779 0.45796967 1.27527557 0.69389343 1.93223572 C13.60854361 37.88701737 26.64341105 73.79356561 39.90696716 109.6212616 C40.59952424 111.49292678 41.29006905 113.36533811 41.97833252 115.23858643 C42.69167537 117.16664488 43.41652663 119.0904673 44.15008545 121.01092529 C44.70106903 122.47190643 44.70106903 122.47190643 45.26318359 123.96240234 C45.59643646 124.83408051 45.92968933 125.70575867 46.27304077 126.60385132 C47 129 47 129 47 133 C44.93827387 133.33808686 42.8755797 133.67027361 40.8125 134 C39.66394531 134.185625 38.51539063 134.37125 37.33203125 134.5625 C34.48803451 134.93592044 31.8579044 135.03409878 29 135 C25.65459436 127.13163462 22.52993474 119.2148148 19.609375 111.1796875 C19.0242514 109.58086227 19.0242514 109.58086227 18.42730713 107.94973755 C17.19901353 104.59240788 15.97427901 101.23379546 14.75 97.875 C13.51090224 94.48069884 12.27103445 91.08668305 11.02984619 87.69314575 C10.26170315 85.59245859 9.49485473 83.49129749 8.72943115 81.38961792 C8.38527161 80.44748444 8.04111206 79.50535095 7.68652344 78.53466797 C7.23282379 77.28990189 7.23282379 77.28990189 6.7699585 76.01998901 C6.02839013 73.97401781 6.02839013 73.97401781 5 72 C3.10466658 71.53476937 3.10466658 71.53476937 0.9375 71.375 C-1.0115625 71.189375 -1.0115625 71.189375 -3 71 C-5.49049401 64.22315854 -7.98069606 57.44620985 -10.47070312 50.66918945 C-11.31634033 48.36773294 -12.16204232 46.06630023 -13.0078125 43.76489258 C-14.22934068 40.44098188 -15.45062937 37.11698327 -16.671875 33.79296875 C-17.04495789 32.7779277 -17.41804077 31.76288666 -17.8024292 30.71708679 C-18.51775125 28.76983787 -19.23157074 26.82203618 -19.94372559 24.87362671 C-20.67367183 22.88778573 -21.4126204 20.90523893 -22.15881348 18.92544556 C-22.70910217 17.45281754 -22.70910217 17.45281754 -23.27050781 15.95043945 C-23.60270325 15.07071976 -23.93489868 14.19100006 -24.27716064 13.28462219 C-25 11 -25 11 -25 8 C-21.39870379 6.65882147 -17.79352141 5.3284161 -14.1875 4 C-13.16333984 3.6184375 -12.13917969 3.236875 -11.08398438 2.84375 C-10.10107422 2.4828125 -9.11816406 2.121875 -8.10546875 1.75 C-7.19949951 1.41484375 -6.29353027 1.0796875 -5.36010742 0.734375 C-3 0 -3 0 0 0 Z " fill="#FCD498" transform="translate(292,26)"/>
<path d="M0 0 C5.91405736 1.67610381 11.75662553 3.54394077 17.5625 5.5625 C19.35880859 6.18318359 19.35880859 6.18318359 21.19140625 6.81640625 C24 8 24 8 25 10 C24.32974243 12.42222595 24.32974243 12.42222595 23.20166016 15.50366211 C22.78437653 16.65503159 22.3670929 17.80640106 21.93716431 18.99266052 C21.47127779 20.25427605 21.00524017 21.51583578 20.5390625 22.77734375 C20.06852881 24.06742678 19.59867887 25.35775938 19.12948608 26.64833069 C17.89038729 30.05104491 16.6422441 33.45037222 15.39215088 36.84906006 C14.12338582 40.3030607 12.86269036 43.76000202 11.6015625 47.21679688 C10.18389228 51.10162199 8.76537053 54.98611811 7.34072876 58.86839294 C6.91714081 60.02291458 6.49355286 61.17743622 6.05712891 62.36694336 C5.68327057 63.38461288 5.30941223 64.40228241 4.92422485 65.45079041 C4.25692535 67.29134499 3.6191066 69.1426802 3 71 C1.14375 70.9690625 1.14375 70.9690625 -0.75 70.9375 C-2.9913039 71.13865536 -2.9913039 71.13865536 -5 72 C-6.22883133 73.65364679 -6.22883133 73.65364679 -6.98364258 75.80493164 C-7.31224274 76.62172394 -7.6408429 77.43851624 -7.97940063 78.28005981 C-8.31619843 79.17764008 -8.65299622 80.07522034 -9 81 C-9.35363617 81.92569794 -9.70727234 82.85139587 -10.07162476 83.80514526 C-11.24228511 86.92299298 -12.38027417 90.05130998 -13.51171875 93.18359375 C-13.92541214 94.32031021 -14.33910553 95.45702667 -14.76533508 96.62818909 C-16.0757304 100.23020841 -17.38184588 103.83375969 -18.6875 107.4375 C-20.00456593 111.0659746 -21.32253818 114.69411579 -22.64179993 118.3217926 C-23.46012106 120.57268476 -24.27704718 122.82408465 -25.092453 125.07603455 C-25.45986099 126.08791336 -25.82726898 127.09979218 -26.20581055 128.14233398 C-26.52905807 129.03452133 -26.8523056 129.92670868 -27.18534851 130.84593201 C-28 133 -28 133 -29 135 C-34.61 134.34 -40.22 133.68 -46 133 C-46.99609769 128.01951155 -46.99170022 127.01747542 -45.33544922 122.56958008 C-44.94193268 121.49380203 -44.54841614 120.41802399 -44.14297485 119.30964661 C-43.70134003 118.14140854 -43.2597052 116.97317047 -42.8046875 115.76953125 C-42.10595513 113.87433499 -41.40722433 111.97913815 -40.70855522 110.08391857 C-39.95807986 108.05562154 -39.20148125 106.02970794 -38.44299316 104.00439453 C-36.86517111 99.79114461 -35.30351621 95.57202912 -33.74511719 91.3515625 C-32.13237596 86.98560806 -30.51893271 82.61992825 -28.90002441 78.2562561 C-25.18664752 68.2433206 -21.52283215 58.21344278 -17.8984375 48.16796875 C-17.65711468 47.49934122 -17.41579185 46.83071369 -17.16715622 46.14182472 C-15.29843309 40.96328241 -13.43217515 35.78385291 -11.5674057 30.60388565 C-10.07336583 26.45380951 -8.57627035 22.30484558 -7.078125 18.15625 C-6.70722748 17.12360519 -6.33632996 16.09096039 -5.95419312 15.02702332 C-4.11668367 9.94242898 -2.19514687 4.94123256 0 0 Z " fill="#FCD598" transform="translate(429,26)"/>
<path d="M0 0 C1.00849599 2.61844441 1.09689155 3.74007788 0.1015625 6.41015625 C-17.9820548 38.89369104 -53.09962982 51.92077829 -87 62 C-88.23492187 62.37898438 -89.46984375 62.75796875 -90.7421875 63.1484375 C-109.54510349 68.57653103 -129.49377065 71.61222637 -149 73 C-150.17022705 73.08467529 -151.3404541 73.16935059 -152.54614258 73.2565918 C-202.04651359 76.61646703 -253.99470077 74.35403468 -301 57 C-301.79583496 56.71044434 -302.59166992 56.42088867 -303.41162109 56.12255859 C-327.03470784 47.41980055 -352.61154181 35.63001774 -367 14 C-367.639375 13.071875 -368.27875 12.14375 -368.9375 11.1875 C-370 9 -370 9 -369 6 C-368.61070312 6.47308594 -368.22140625 6.94617188 -367.8203125 7.43359375 C-334.73025496 46.5469567 -274.37454053 59.11978666 -225.58209229 63.43141174 C-213.5531258 64.36804979 -201.49714275 64.438245 -189.4375 64.4375 C-188.34163574 64.43799347 -187.24577148 64.43848694 -186.11669922 64.43899536 C-128.35924837 64.31245814 -56.48022912 56.22557821 -12 15 C-7.44328738 10.35847547 -3.40955028 5.5405192 0 0 Z " fill="#FBE9D2" transform="translate(402,427)"/>
<path d="M0 0 C0.9640979 -0.00100708 1.9281958 -0.00201416 2.92150879 -0.00305176 C38.52872594 0.02192545 72.96402739 4.43273531 107.25 14.25 C108.18440918 14.51651367 109.11881836 14.78302734 110.08154297 15.05761719 C139.48650045 23.64686077 171.51382406 38.42030985 187.3671875 66.0390625 C188.38267265 68.58226866 188.4118999 70.53579586 188.25 73.25 C187.755 72.610625 187.26 71.97125 186.75 71.3125 C165.36405478 45.1147171 135.87241086 32.95959929 104.25 23.25 C103.42628906 22.99234863 102.60257812 22.73469727 101.75390625 22.46923828 C55.74683619 8.30932941 3.79767699 6.83129683 -43.75 12.25 C-44.72662598 12.35715332 -45.70325195 12.46430664 -46.70947266 12.57470703 C-59.8975567 14.05055224 -72.84415394 16.15926324 -85.75 19.25 C-86.65218262 19.46527344 -87.55436523 19.68054688 -88.48388672 19.90234375 C-119.40765364 27.38876091 -148.49048712 38.09344807 -172.75 59.25 C-174.14574314 60.43760601 -175.54156425 61.62512039 -176.9375 62.8125 C-177.865625 63.616875 -178.79375 64.42125 -179.75 65.25 C-178.7276415 56.63740418 -170.99367725 50.05872208 -164.6875 44.6875 C-131.26128233 18.65317191 -89.44906655 8.61372257 -48.25 3.0625 C-47.00992188 2.89540527 -45.76984375 2.72831055 -44.4921875 2.55615234 C-29.62880452 0.62462867 -14.97043401 0.01089971 0 0 Z " fill="#FAE9D2" transform="translate(213.75,218.75)"/>
<path d="M0 0 C1.29614258 2.32910156 1.29614258 2.32910156 2.39453125 5.390625 C2.79220703 6.49277344 3.18988281 7.59492187 3.59960938 8.73046875 C3.99986328 9.89191406 4.40011719 11.05335937 4.8125 12.25 C5.23208984 13.39597656 5.65167969 14.54195312 6.08398438 15.72265625 C9.36808984 25.01770268 9.36808984 25.01770268 8 30 C7.04049741 33.67288796 6.96132484 35.861939 8.26000977 39.42871094 C8.56105118 40.27439636 8.86209259 41.12008179 9.17225647 41.99139404 C9.5085759 42.89657776 9.84489532 43.80176147 10.19140625 44.734375 C10.53372787 45.68580383 10.8760495 46.63723267 11.22874451 47.61749268 C12.32847008 50.66598096 13.44506214 53.70796528 14.5625 56.75 C15.28825479 58.75088699 16.01287574 60.75218563 16.73632812 62.75390625 C18.1484442 66.65757461 19.56641099 70.55903723 20.98876953 74.45898438 C23.71639318 81.95248819 26.36474908 89.47360684 29 97 C26.21251481 98.67373751 23.41935573 100.33776267 20.625 102 C19.8309375 102.47695312 19.036875 102.95390625 18.21875 103.4453125 C17.45820313 103.89648438 16.69765625 104.34765625 15.9140625 104.8125 C15.2123291 105.23144531 14.5105957 105.65039062 13.78759766 106.08203125 C12 107 12 107 10 107 C9.75325027 106.31350876 9.50650055 105.62701752 9.25227356 104.91972351 C6.86703396 98.28471375 4.48001212 91.65034811 2.09116936 85.01663494 C0.82615995 81.50364746 -0.43829338 77.99046204 -1.70144653 74.47680664 C-8.92616738 54.36037512 -8.92616738 54.36037512 -16.390625 34.33203125 C-16.70417435 33.50394455 -17.01772369 32.67585785 -17.34077454 31.82267761 C-18.73741543 28.13894095 -20.14718458 24.46124668 -21.58081055 20.79174805 C-22.0634089 19.52799257 -22.5456161 18.26408763 -23.02734375 17 C-23.43718506 15.948125 -23.84702637 14.89625 -24.26928711 13.8125 C-25.0822803 10.68330469 -25.19307697 9.00712738 -24 6 C-22.11401367 4.77392578 -22.11401367 4.77392578 -19.66796875 3.9453125 C-18.78689453 3.64109375 -17.90582031 3.336875 -16.99804688 3.0234375 C-16.07056641 2.72695312 -15.14308594 2.43046875 -14.1875 2.125 C-13.27162109 1.8053125 -12.35574219 1.485625 -11.41210938 1.15625 C-3.21795381 -1.58906068 -3.21795381 -1.58906068 0 0 Z " fill="#FCEBD3" transform="translate(247,81)"/>
<path d="M0 0 C6.09721093 1.19784176 11.78058185 2.85991866 17.5625 5.125 C18.28501953 5.40214844 19.00753906 5.67929688 19.75195312 5.96484375 C21.50347008 6.63761185 23.25206364 7.31798311 25 8 C24.33192975 11.82148793 23.26448291 15.31892514 21.94970703 18.96655273 C21.3123613 20.74273232 21.3123613 20.74273232 20.66213989 22.55479431 C20.19412499 23.84776157 19.72601299 25.14069368 19.2578125 26.43359375 C18.76964489 27.78937259 18.28176624 29.1452555 17.79415894 30.50123596 C16.50281613 34.08952218 15.20709371 37.6762125 13.9105835 41.26263428 C12.88720281 44.09583479 11.86698965 46.93017017 10.84695816 49.76457787 C3.97100378 68.86992045 -2.98817174 87.94412688 -10 107 C-13.88110531 107 -14.62315943 106.92355621 -17.671875 105.03125 C-18.33574219 104.62519531 -18.99960937 104.21914062 -19.68359375 103.80078125 C-20.36550781 103.37152344 -21.04742187 102.94226563 -21.75 102.5 C-22.44738281 102.07074219 -23.14476562 101.64148438 -23.86328125 101.19921875 C-25.58041523 100.1407115 -27.29087541 99.07139153 -29 98 C-26.90166949 90.6518372 -24.42557387 83.49532342 -21.76953125 76.33203125 C-20.95848314 74.11802209 -20.14795143 71.90382371 -19.33789062 69.68945312 C-18.07232769 66.23802978 -16.8034126 62.78798593 -15.52563477 59.34106445 C-14.28421429 55.98753966 -13.0570418 52.62907917 -11.83203125 49.26953125 C-11.44771439 48.24334183 -11.06339752 47.2171524 -10.66743469 46.15986633 C-8.75365085 40.87604227 -7.51787706 36.62771642 -8 31 C-8.66 30.67 -9.32 30.34 -10 30 C-9.41054142 25.81131279 -8.4409435 22.11289424 -6.93359375 18.1640625 C-6.53076172 17.10058594 -6.12792969 16.03710938 -5.71289062 14.94140625 C-5.29201172 13.84699219 -4.87113281 12.75257812 -4.4375 11.625 C-4.01275391 10.50738281 -3.58800781 9.38976562 -3.15039062 8.23828125 C-2.10520253 5.49025861 -1.05493476 2.74429248 0 0 Z " fill="#FCEBD4" transform="translate(474,80)"/>
<path d="M0 0 C8.58 0 17.16 0 26 0 C26 3.3 26 6.6 26 10 C23.9271875 10.12375 23.9271875 10.12375 21.8125 10.25 C17.46900453 10.72197037 15.10745866 11.79543326 12 15 C10.73420362 17.53159277 10.86104803 19.30293202 10.84178162 22.1378479 C10.82709839 23.7701107 10.82709839 23.7701107 10.81211853 25.43534851 C10.80636307 26.63440323 10.8006076 27.83345795 10.79467773 29.06884766 C10.77982834 30.95660164 10.77982834 30.95660164 10.76467896 32.88249207 C10.73760233 36.33885454 10.71660774 39.79523072 10.69667697 43.2516408 C10.67483439 46.86182696 10.64743727 50.47197078 10.62062073 54.0821228 C10.57067042 60.92085634 10.52574029 67.75961334 10.48259836 74.59839284 C10.43324594 82.38308322 10.37832043 90.16773111 10.32291877 97.95238042 C10.20906284 113.96821447 10.10223169 129.98408744 10 146 C8.02 146 6.04 146 4 146 C-0.30081253 138.5367273 -0.55170613 131.87698486 -0.45410156 123.40209961 C-0.4529712 122.05103591 -0.45361062 120.69996975 -0.45587158 119.34890747 C-0.45701232 115.70677537 -0.43360814 112.06517758 -0.40557575 108.4231689 C-0.38045429 104.60754451 -0.37821168 100.79190588 -0.37347412 96.97621155 C-0.36107572 89.76216148 -0.32829702 82.54835587 -0.28807616 75.33441311 C-0.24326034 67.1167412 -0.22134683 58.8990572 -0.20129442 50.68129337 C-0.15956119 33.78736353 -0.08624856 16.89377014 0 0 Z " fill="#FBEAD4" transform="translate(347,11)"/>
<path d="M0 0 C2.5625 0.5 2.5625 0.5 4.625 2.5 C7.34389526 6.70990234 9.50626535 11.10529797 11.52734375 15.6875 C12.97916552 18.85935158 14.15338329 21.12595043 16.75 23.5 C21.82268773 25.3036223 26.52342745 25.2646522 31.5625 23.375 C33.30991796 22.28286377 35.04009218 21.15997513 36.71875 19.96484375 C42.89751259 15.60881612 42.89751259 15.60881612 47 14.9375 C49.5625 15.5 49.5625 15.5 51.5625 18.5 C51.5625 23.45 51.5625 28.4 51.5625 33.5 C17.5725 33.5 -16.4175 33.5 -51.4375 33.5 C-51.4375 17.5 -51.4375 17.5 -49.4375 15.5 C-43.45232018 15.2823571 -40.71479388 16.8340659 -36.0625 20.5625 C-31.43906226 24.14566425 -28.44424305 25.47199584 -22.6015625 24.98046875 C-19.79064405 24.35638397 -17.73140665 23.22042998 -15.4375 21.5 C-14.7775 21.5 -14.1175 21.5 -13.4375 21.5 C-13.19966797 20.68208984 -13.19966797 20.68208984 -12.95703125 19.84765625 C-7.27804851 1.49293303 -7.27804851 1.49293303 0 0 Z " fill="#8FC552" transform="translate(216.4375,271.5)"/>
<path d="M0 0 C0.43699219 1.23580811 0.43699219 1.23580811 0.8828125 2.49658203 C2.00309046 5.66321678 3.12405536 8.82960617 4.24569702 11.99575806 C4.74730997 13.41170808 5.2487958 14.82770315 5.75015259 16.2437439 C9.33928607 26.37753683 12.96909004 36.49479929 16.71289062 46.57275391 C17.01775391 47.40081543 17.32261719 48.22887695 17.63671875 49.08203125 C18.03443481 50.15287964 18.03443481 50.15287964 18.44018555 51.24536133 C19 53 19 53 19 55 C15.58477263 56.31626691 12.16757936 57.62735326 8.75 58.9375 C7.78191406 59.31068359 6.81382812 59.68386719 5.81640625 60.06835938 C4.88183594 60.42607422 3.94726562 60.78378906 2.984375 61.15234375 C2.12553711 61.48226318 1.26669922 61.81218262 0.38183594 62.15209961 C-1.73668118 62.90626217 -3.81720311 63.47290518 -6 64 C-8.48290523 57.1434902 -10.96067041 50.28514636 -13.43187714 43.42441082 C-14.57949995 40.23880765 -15.72888832 37.0538648 -16.88232422 33.87036133 C-18.2080693 30.21103964 -19.52611354 26.5489684 -20.84375 22.88671875 C-21.25935181 21.7428923 -21.67495361 20.59906586 -22.10314941 19.420578 C-22.4835437 18.35970474 -22.86393799 17.29883148 -23.25585938 16.20581055 C-23.59339233 15.27093307 -23.93092529 14.3360556 -24.27868652 13.37284851 C-25 11 -25 11 -25 8 C-21.39870379 6.65882147 -17.79352141 5.3284161 -14.1875 4 C-13.16333984 3.6184375 -12.13917969 3.236875 -11.08398438 2.84375 C-10.10107422 2.4828125 -9.11816406 2.121875 -8.10546875 1.75 C-7.19949951 1.41484375 -6.29353027 1.0796875 -5.36010742 0.734375 C-3 0 -3 0 0 0 Z " fill="#FCD599" transform="translate(291,109)"/>
<path d="M0 0 C1.58345275 0.47190162 3.16665611 0.94464012 4.74975586 1.41772461 C5.63142929 1.68088974 6.51310272 1.94405487 7.42149353 2.2151947 C10.83334443 3.25364029 14.1962272 4.38375025 17.5625 5.5625 C19.35880859 6.18318359 19.35880859 6.18318359 21.19140625 6.81640625 C24 8 24 8 25 10 C24.45709229 12.11178589 24.45709229 12.11178589 23.50878906 14.75341797 C23.15802307 15.74139374 22.80725708 16.72936951 22.44586182 17.74728394 C22.05638367 18.81810211 21.66690552 19.88892029 21.265625 20.9921875 C20.87179626 22.08967316 20.47796753 23.18715881 20.07220459 24.31790161 C19.23512512 26.64442874 18.39421015 28.96957882 17.54980469 31.29345703 C16.25930052 34.84937291 14.98427616 38.41056286 13.7109375 41.97265625 C12.89676081 44.22950148 12.08168586 46.48602289 11.265625 48.7421875 C10.69355316 50.34234207 10.69355316 50.34234207 10.10992432 51.974823 C9.56486237 53.46624313 9.56486237 53.46624313 9.00878906 54.98779297 C8.69266663 55.86112274 8.37654419 56.73445251 8.05084229 57.63424683 C6.97084729 60.06563128 5.67584979 61.94338351 4 64 C1.1040094 62.87540455 -1.79176416 61.75025125 -4.6875 60.625 C-5.91243164 60.14933594 -5.91243164 60.14933594 -7.16210938 59.6640625 C-11.11552261 58.12751323 -15.06620975 56.58633497 -19 55 C-17.62767391 48.06695894 -15.57488727 41.6658995 -13.0859375 35.05859375 C-12.71143463 34.05031021 -12.33693176 33.04202667 -11.95108032 32.00318909 C-10.76456047 28.81254239 -9.56992386 25.62500757 -8.375 22.4375 C-7.56456402 20.26257099 -6.75466275 18.08744265 -5.9453125 15.91210938 C-3.96971941 10.60575215 -1.98746994 5.30191944 0 0 Z " fill="#FBD498" transform="translate(430,109)"/>
<path d="M0 0 C33.99 0 67.98 0 103 0 C103 12 103 12 101 17 C95.04054001 17.5410859 92.06517129 16.13882648 87.5625 12.5 C82.60235603 8.64226624 82.60235603 8.64226624 76.625 7.25 C69.19371108 8.77248793 69.19371108 8.77248793 63.9375 13.9375 C63.27116946 15.28169927 62.62885899 16.63786769 62 18 C60.9629412 20.10644151 59.92097366 22.210471 58.875 24.3125 C58.37742188 25.33988281 57.87984375 26.36726563 57.3671875 27.42578125 C56 30 56 30 54 32 C51.6875 32.5 51.6875 32.5 49 32 C45.04698129 28.44228316 43.46721987 24.87273262 41.5625 19.9375 C39.48860689 14.66444686 37.78419869 12.01612526 33 9 C29.2740712 7.75802373 25.87070962 7.46712984 22 8 C18.90412546 9.64677204 18.90412546 9.64677204 16 12 C9.23068769 16.8176759 9.23068769 16.8176759 4.625 17.5 C3.75875 17.335 2.8925 17.17 2 17 C0 14 0 14 0 0 Z " fill="#92CA52" transform="translate(165,416)"/>
<path d="M0 0 C2.12660066 0.01309369 4.25322277 0.02303997 6.37985229 0.03001404 C11.91388676 0.05644302 17.44658687 0.12494143 22.98010254 0.20294189 C28.6519161 0.27520146 34.32395026 0.30665815 39.99609375 0.34179688 C51.07870377 0.41634249 62.16033368 0.53544216 73.2421875 0.68359375 C72.9121875 4.64359375 72.5821875 8.60359375 72.2421875 12.68359375 C30.6621875 12.68359375 -10.9178125 12.68359375 -53.7578125 12.68359375 C-53.7578125 12.35359375 -53.7578125 12.02359375 -53.7578125 11.68359375 C-53.02820313 11.47605469 -52.29859375 11.26851563 -51.546875 11.0546875 C-44.07659899 8.85860366 -44.07659899 8.85860366 -36.87576294 5.93833923 C-24.47732766 0.28976194 -13.47403774 -0.24757522 0 0 Z " fill="#A8F5FD" transform="translate(376.7578125,485.31640625)"/>
<path d="M0 0 C5.27405053 0.41365102 8.17729898 1.28973136 12 5 C14.22868738 9.45737475 13.41731506 14.44768979 12.16955566 19.08905029 C10.95933891 22.69916061 9.6623267 26.27047015 8.328125 29.8359375 C7.84320002 31.16389732 7.35956078 32.49232728 6.87713623 33.82119751 C5.60905505 37.3035921 4.323857 40.77941786 3.03479004 44.25408936 C1.73679088 47.76195782 0.45497332 51.27572258 -0.828125 54.7890625 C-2.71879752 59.96077937 -4.61808081 65.12918885 -6.52636719 70.29443359 C-6.94414429 71.42822449 -7.36192139 72.56201538 -7.7923584 73.73016357 C-8.58275473 75.87025772 -9.37758732 78.00871994 -10.17736816 80.14532471 C-10.53552612 81.11008728 -10.89368408 82.07484985 -11.26269531 83.06884766 C-11.57539368 83.90453278 -11.88809204 84.7402179 -12.21026611 85.60122681 C-13.1832085 88.39448419 -13.1832085 88.39448419 -14 93 C-17.63 91.02 -21.26 89.04 -25 87 C-22.87493959 79.65487417 -20.42721587 72.49975187 -17.76953125 65.33203125 C-16.95848314 63.11802209 -16.14795143 60.90382371 -15.33789062 58.68945312 C-14.07232769 55.23802978 -12.8034126 51.78798593 -11.52563477 48.34106445 C-10.28421429 44.98753966 -9.0570418 41.62907917 -7.83203125 38.26953125 C-7.44771439 37.24334183 -7.06339752 36.2171524 -6.66743469 35.15986633 C-4.75365085 29.87604227 -3.51787706 25.62771642 -4 20 C-4.66 19.67 -5.32 19.34 -6 19 C-5.39124245 14.39583374 -4.15277044 10.43516676 -2.4375 6.125 C-1.75494141 4.39636719 -1.75494141 4.39636719 -1.05859375 2.6328125 C-0.70925781 1.76398438 -0.35992187 0.89515625 0 0 Z " fill="#FBD498" transform="translate(470,91)"/>
<path d="M0 0 C2.1489362 3.22340429 3.34749944 6.24279217 4.6875 9.875 C5.14511719 11.08929688 5.60273438 12.30359375 6.07421875 13.5546875 C7.01947132 17.07246289 7.01940049 18.58697959 6 22 C5.03561024 25.67084658 4.96196091 27.86368593 6.26000977 31.42871094 C6.56105118 32.27439636 6.86209259 33.12008179 7.17225647 33.99139404 C7.5085759 34.89657776 7.84489532 35.80176147 8.19140625 36.734375 C8.70488869 38.16151825 8.70488869 38.16151825 9.22874451 39.61749268 C10.32847008 42.66598096 11.44506214 45.70796528 12.5625 48.75 C13.28825479 50.75088699 14.01287574 52.75218563 14.73632812 54.75390625 C16.1484442 58.65757461 17.56641099 62.55903723 18.98876953 66.45898438 C21.71639318 73.95248819 24.36474908 81.47360684 27 89 C23.37 90.98 19.74 92.96 16 95 C15.61505371 93.81180664 15.23010742 92.62361328 14.83349609 91.39941406 C11.4109466 80.93596212 7.79074121 70.561674 3.9765625 60.234375 C3.54124207 59.05339233 3.10592163 57.87240967 2.65740967 56.65563965 C0.85666174 51.77598622 -0.94716648 46.89755628 -2.76416016 42.02392578 C-4.10972832 38.40988295 -5.44250676 34.79132937 -6.7734375 31.171875 C-7.18379242 30.08114685 -7.59414734 28.9904187 -8.01693726 27.86663818 C-10.21905969 21.84648199 -11.83865423 16.4363452 -12 10 C-10.08652607 6.21045444 -7.05671228 3.35223743 -3 2 C-2.01 2 -1.02 2 0 2 C0 1.34 0 0.68 0 0 Z " fill="#FBD498" transform="translate(249,89)"/>
<path d="M0 0 C3.22178087 1.48697578 4.54028793 3.14366675 6.4375 6.125 C7.375 8.6875 7.375 8.6875 7.4375 11.125 C6.0625 13.25 6.0625 13.25 4.4375 15.125 C3.57330777 17.71757669 3.26169068 19.46537707 3.12109375 22.13671875 C3.05825195 23.27270508 3.05825195 23.27270508 2.99414062 24.43164062 C2.95482422 25.21732422 2.91550781 26.00300781 2.875 26.8125 C2.81022461 28.00842773 2.81022461 28.00842773 2.74414062 29.22851562 C2.63822632 31.19381447 2.53737449 33.15938496 2.4375 35.125 C-5.23461202 35.15026605 -12.9067134 35.16783123 -20.57885742 35.17993164 C-23.19116619 35.18497377 -25.80347211 35.19180725 -28.41577148 35.20043945 C-32.16130268 35.21251036 -35.90679672 35.21822935 -39.65234375 35.22265625 C-40.82836655 35.22781754 -42.00438934 35.23297882 -43.21604919 35.23829651 C-44.29709427 35.23837204 -45.37813934 35.23844757 -46.49194336 35.23852539 C-47.44902695 35.240746 -48.40611053 35.24296661 -49.39219666 35.24525452 C-51.5625 35.125 -51.5625 35.125 -52.5625 34.125 C-52.68935806 31.48753244 -52.74770617 28.88790834 -52.75 26.25 C-52.76224609 25.51652344 -52.77449219 24.78304688 -52.78710938 24.02734375 C-52.79759566 20.18936486 -52.74018617 18.39152926 -50.5625 15.125 C-42.81624017 15.26844926 -38.60631187 18.54158877 -32.5625 23.125 C-30.27765295 24.26742352 -28.85413872 24.32312982 -26.3125 24.375 C-25.56484375 24.40078125 -24.8171875 24.4265625 -24.046875 24.453125 C-20.57273651 23.99427652 -18.49140992 23.08276542 -15.5625 21.125 C-13.8591746 18.64875531 -12.68827591 16.00362477 -11.5 13.25 C-5.77167522 0.28154513 -5.77167522 0.28154513 0 0 Z " fill="#90C553" transform="translate(151.5625,269.875)"/>
<path d="M0 0 C6.66352826 3.41302667 9.11444813 10.44798424 11.55859375 17.10546875 C13.26219002 20.85072902 16.00004523 22.53127261 19.5625 24.3125 C25.94126455 25.1049738 30.27387444 23.99922562 35.5625 20.3125 C42.76240469 15.43425363 42.76240469 15.43425363 46.4375 14.875 C48.5625 15.3125 48.5625 15.3125 50.5625 17.3125 C51.66744985 20.49447584 51.69661034 23.52694998 51.6875 26.875 C51.69136719 28.30005859 51.69136719 28.30005859 51.6953125 29.75390625 C51.5625 32.3125 51.5625 32.3125 50.5625 35.3125 C32.7425 35.3125 14.9225 35.3125 -3.4375 35.3125 C-3.7675 30.0325 -4.0975 24.7525 -4.4375 19.3125 C-6.41917933 14.84433773 -6.41917933 14.84433773 -8.4375 11.3125 C-8.51931962 7.13969925 -7.73232616 5.69741194 -5.1875 2.375 C-2.4375 0.3125 -2.4375 0.3125 0 0 Z " fill="#90C653" transform="translate(282.4375,269.6875)"/>
<path d="M0 0 C7.67211202 -0.02526605 15.3442134 -0.04283123 23.01635742 -0.05493164 C25.62866619 -0.05997377 28.24097211 -0.06680725 30.85327148 -0.07543945 C34.59880268 -0.08751036 38.34429672 -0.09322935 42.08984375 -0.09765625 C43.26586655 -0.10281754 44.44188934 -0.10797882 45.65354919 -0.11329651 C46.73459427 -0.11337204 47.81563934 -0.11344757 48.92944336 -0.11352539 C49.88652695 -0.115746 50.84361053 -0.11796661 51.82969666 -0.12025452 C54 0 54 0 55 1 C55.41654639 7.22882157 55.57708209 13.20156531 53 19 C47.05037704 19.53883378 44.15157369 18.16093993 39.6875 14.5 C34.92123548 10.9113561 31.25161011 8.78689971 25.15234375 9.44921875 C20.98872676 10.51468154 18.21165625 12.07158935 15.890625 15.765625 C14.84213279 17.81421748 13.91106803 19.88693466 13 22 C8.59832895 31.5658363 8.59832895 31.5658363 5 34 C2 34.125 2 34.125 -1 33 C-3.46521335 30.21873366 -5.03757312 28.42777852 -4.9375 24.625 C-4.20494083 22.57383431 -3.37110102 20.55877318 -2.5 18.5625 C-0.94480924 14.62792385 -0.66100142 10.9255908 -0.40625 6.71484375 C-0.28733398 4.8275354 -0.28733398 4.8275354 -0.16601562 2.90209961 C-0.11123047 1.94440674 -0.05644531 0.98671387 0 0 Z " fill="#92CA52" transform="translate(279,416)"/>
<path d="M0 0 C18.15 0 36.3 0 55 0 C55.495 7.92 55.495 7.92 56 16 C57.27474106 18.69516681 58.5894089 21.37338209 60 24 C59.31080444 28.47977114 57.6453097 31.29205565 54 34 C51.5 34.5625 51.5 34.5625 49 34 C44.91500475 29.59144077 42.95720719 24.63334083 40.66015625 19.15625 C38.57452141 15.19109012 36.06300408 12.03150204 32 10 C27.15272015 9.46819412 23.2189221 9.34178207 18.875 11.6875 C17.92625 12.450625 16.9775 13.21375 16 14 C7.960217 19.74502712 7.960217 19.74502712 2 19 C0 15 0 15 0 0 Z " fill="#92CA52" transform="translate(99,416)"/>
<path d="M0 0 C0.50615298 1.26839526 1.00469099 2.53983102 1.5 3.8125 C1.7784375 4.52019531 2.056875 5.22789063 2.34375 5.95703125 C3 8 3 8 3 11 C1.71086513 11.67154933 0.41859796 12.33708859 -0.875 13 C-1.59429687 13.37125 -2.31359375 13.7425 -3.0546875 14.125 C-5 15 -5 15 -7 15 C-10.09210334 24.27631003 -6.82881396 32.56342483 -3.49609375 41.31640625 C-3.01932894 42.60357248 -2.54402711 43.89128141 -2.07008362 45.17948914 C-1.06395919 47.90494254 -0.04797473 50.62641609 0.97631836 53.34509277 C2.57312007 57.58365115 4.1466303 61.83061746 5.71679688 66.07910156 C8.31384811 73.09784753 10.92875006 80.10980966 13.54962158 87.11968994 C16.72635486 95.61634767 19.88803003 104.11851645 23.02853394 112.62863159 C23.98402481 115.20689314 24.95146193 117.78043883 25.92016602 120.35375977 C26.48890983 121.88670877 27.05721836 123.41981937 27.625 124.953125 C27.88526474 125.63444992 28.14552948 126.31577484 28.41368103 127.01774597 C30.11378451 131.65864646 30.11378451 131.65864646 29 135 C25.65459436 127.13163462 22.52993474 119.2148148 19.609375 111.1796875 C19.0242514 109.58086227 19.0242514 109.58086227 18.42730713 107.94973755 C17.19901353 104.59240788 15.97427901 101.23379546 14.75 97.875 C13.51090224 94.48069884 12.27103445 91.08668305 11.02984619 87.69314575 C10.26170315 85.59245859 9.49485473 83.49129749 8.72943115 81.38961792 C8.38527161 80.44748444 8.04111206 79.50535095 7.68652344 78.53466797 C7.23282379 77.28990189 7.23282379 77.28990189 6.7699585 76.01998901 C6.02839013 73.97401781 6.02839013 73.97401781 5 72 C3.10466658 71.53476937 3.10466658 71.53476937 0.9375 71.375 C-1.0115625 71.189375 -1.0115625 71.189375 -3 71 C-5.49049401 64.22315854 -7.98069606 57.44620985 -10.47070312 50.66918945 C-11.31634033 48.36773294 -12.16204232 46.06630023 -13.0078125 43.76489258 C-14.22934068 40.44098188 -15.45062937 37.11698327 -16.671875 33.79296875 C-17.04495789 32.7779277 -17.41804077 31.76288666 -17.8024292 30.71708679 C-18.51775125 28.76983787 -19.23157074 26.82203618 -19.94372559 24.87362671 C-20.67367183 22.88778573 -21.4126204 20.90523893 -22.15881348 18.92544556 C-22.70910217 17.45281754 -22.70910217 17.45281754 -23.27050781 15.95043945 C-23.60270325 15.07071976 -23.93489868 14.19100006 -24.27716064 13.28462219 C-25 11 -25 11 -25 8 C-21.39870379 6.65882147 -17.79352141 5.3284161 -14.1875 4 C-13.16333984 3.6184375 -12.13917969 3.236875 -11.08398438 2.84375 C-10.10107422 2.4828125 -9.11816406 2.121875 -8.10546875 1.75 C-7.19949951 1.41484375 -6.29353027 1.0796875 -5.36010742 0.734375 C-3 0 -3 0 0 0 Z " fill="#FAE9D1" transform="translate(292,26)"/>
<path d="M0 0 C5.91405736 1.67610381 11.75662553 3.54394077 17.5625 5.5625 C19.35880859 6.18318359 19.35880859 6.18318359 21.19140625 6.81640625 C24 8 24 8 25 10 C24.32974243 12.42222595 24.32974243 12.42222595 23.20166016 15.50366211 C22.78437653 16.65503159 22.3670929 17.80640106 21.93716431 18.99266052 C21.47127779 20.25427605 21.00524017 21.51583578 20.5390625 22.77734375 C20.06852881 24.06742678 19.59867887 25.35775938 19.12948608 26.64833069 C17.89038729 30.05104491 16.6422441 33.45037222 15.39215088 36.84906006 C14.12338582 40.3030607 12.86269036 43.76000202 11.6015625 47.21679688 C10.18389228 51.10162199 8.76537053 54.98611811 7.34072876 58.86839294 C6.91714081 60.02291458 6.49355286 61.17743622 6.05712891 62.36694336 C5.68327057 63.38461288 5.30941223 64.40228241 4.92422485 65.45079041 C4.25692535 67.29134499 3.6191066 69.1426802 3 71 C1.14375 70.9690625 1.14375 70.9690625 -0.75 70.9375 C-2.9913039 71.13865536 -2.9913039 71.13865536 -5 72 C-6.22883133 73.65364679 -6.22883133 73.65364679 -6.98364258 75.80493164 C-7.31224274 76.62172394 -7.6408429 77.43851624 -7.97940063 78.28005981 C-8.31619843 79.17764008 -8.65299622 80.07522034 -9 81 C-9.35363617 81.92569794 -9.70727234 82.85139587 -10.07162476 83.80514526 C-11.24228511 86.92299298 -12.38027417 90.05130998 -13.51171875 93.18359375 C-13.92541214 94.32031021 -14.33910553 95.45702667 -14.76533508 96.62818909 C-16.0757304 100.23020841 -17.38184588 103.83375969 -18.6875 107.4375 C-20.00456593 111.0659746 -21.32253818 114.69411579 -22.64179993 118.3217926 C-23.46012106 120.57268476 -24.27704718 122.82408465 -25.092453 125.07603455 C-25.45986099 126.08791336 -25.82726898 127.09979218 -26.20581055 128.14233398 C-26.52905807 129.03452133 -26.8523056 129.92670868 -27.18534851 130.84593201 C-28 133 -28 133 -29 135 C-29.66 134.67 -30.32 134.34 -31 134 C-28.43829881 126.86992537 -25.87428717 119.74068442 -23.30776501 112.61234379 C-22.0600595 109.14685185 -20.81291127 105.6811617 -19.56707764 102.21499634 C-14.37638747 87.77548911 -9.16458254 73.34720296 -3.75390625 58.98828125 C-3.35508743 57.92629517 -2.95626862 56.86430908 -2.54536438 55.7701416 C-0.6894443 50.82990913 1.17885123 45.89508923 3.07006836 40.96826172 C3.73216343 39.21212334 4.39373542 37.45578763 5.0546875 35.69921875 C5.35672592 34.92790115 5.65876434 34.15658356 5.96995544 33.3618927 C7.83176699 28.36051905 8.46632574 24.34478276 8 19 C4.96788253 14.98690335 1.56040706 13.01506358 -3 11 C-2.44894091 7.0507432 -1.61064629 3.65079826 0 0 Z " fill="#FBEAD2" transform="translate(429,26)"/>
<path d="M0 0 C-0.58007812 0.42410156 -1.16015625 0.84820312 -1.7578125 1.28515625 C-12.8350459 9.60222093 -19.74286312 19.28099948 -23 33 C-24.34126409 48.64227473 -21.25219585 62.75811622 -11.625 75.3125 C-8.36694862 78.64812403 -4.81292758 81.33189683 -1 84 C-3.44686287 84.8826583 -4.70681733 85.08949787 -7.2265625 84.3203125 C-19.02005288 78.44277495 -28.39387206 69.59487611 -33.09375 57.08984375 C-36.73774063 44.28526557 -35.84957604 32.17153981 -29.75 20.375 C-24.65751276 11.8172108 -11.35258973 -4.20466286 0 0 Z " fill="#FBD08B" transform="translate(46,318)"/>
<path d="M0 0 C5.91405736 1.67610381 11.75662553 3.54394077 17.5625 5.5625 C18.76003906 5.97628906 19.95757812 6.39007813 21.19140625 6.81640625 C24 8 24 8 25 10 C24.45709229 12.11178589 24.45709229 12.11178589 23.50878906 14.75341797 C22.98264008 16.23538162 22.98264008 16.23538162 22.44586182 17.74728394 C22.05638367 18.81810211 21.66690552 19.88892029 21.265625 20.9921875 C20.87179626 22.08967316 20.47796753 23.18715881 20.07220459 24.31790161 C19.23512512 26.64442874 18.39421015 28.96957882 17.54980469 31.29345703 C16.25930052 34.84937291 14.98427616 38.41056286 13.7109375 41.97265625 C12.89676081 44.22950148 12.08168586 46.48602289 11.265625 48.7421875 C10.69355316 50.34234207 10.69355316 50.34234207 10.10992432 51.974823 C9.74654968 52.96910309 9.38317505 53.96338318 9.00878906 54.98779297 C8.53460541 56.29778763 8.53460541 56.29778763 8.05084229 57.63424683 C6.97084729 60.06563128 5.67584979 61.94338351 4 64 C0.535 62.515 0.535 62.515 -3 61 C-2.45156677 56.23129248 -1.48211417 52.14933298 0.28515625 47.69140625 C0.73310547 46.53189453 1.18105469 45.37238281 1.64257812 44.17773438 C2.58838739 41.76962853 3.53890386 39.36336613 4.49414062 36.95898438 C7.88166427 28.21413554 7.88166427 28.21413554 8 19 C4.96788253 14.98690335 1.56040706 13.01506358 -3 11 C-2.69078116 9.54096742 -2.37751201 8.08279278 -2.0625 6.625 C-1.88847656 5.81289062 -1.71445312 5.00078125 -1.53515625 4.1640625 C-1 2 -1 2 0 0 Z " fill="#FCEBD4" transform="translate(430,109)"/>
<path d="M0 0 C1.42258812 3.82320557 2.24042276 6.91281305 2 11 C-4.75 15 -4.75 15 -7 15 C-9.39244614 20.08394804 -9.61506678 23.95597366 -7.99023438 29.35571289 C-7.52939453 30.5493042 -7.06855469 31.74289551 -6.59375 32.97265625 C-6.34959351 33.61818954 -6.10543701 34.26372284 -5.85388184 34.92881775 C-5.07856044 36.97707405 -4.29070137 39.0201362 -3.5 41.0625 C-2.70989373 43.10862937 -1.92294533 45.15568359 -1.14611816 47.20689392 C-0.4420781 49.06556956 0.27376742 50.91976076 0.99023438 52.77368164 C1.92316867 55.75451499 2.22413759 57.91119487 2 61 C-3.75 64 -3.75 64 -6 64 C-8.48290523 57.1434902 -10.96067041 50.28514636 -13.43187714 43.42441082 C-14.57949995 40.23880765 -15.72888832 37.0538648 -16.88232422 33.87036133 C-18.2080693 30.21103964 -19.52611354 26.5489684 -20.84375 22.88671875 C-21.25935181 21.7428923 -21.67495361 20.59906586 -22.10314941 19.420578 C-22.4835437 18.35970474 -22.86393799 17.29883148 -23.25585938 16.20581055 C-23.59339233 15.27093307 -23.93092529 14.3360556 -24.27868652 13.37284851 C-25 11 -25 11 -25 8 C-21.39870379 6.65882147 -17.79352141 5.3284161 -14.1875 4 C-13.16333984 3.6184375 -12.13917969 3.236875 -11.08398438 2.84375 C-10.10107422 2.4828125 -9.11816406 2.121875 -8.10546875 1.75 C-7.19949951 1.41484375 -6.29353027 1.0796875 -5.36010742 0.734375 C-3 0 -3 0 0 0 Z " fill="#FBEAD3" transform="translate(291,109)"/>
<path d="M0 0 C1.09123169 -0.01260864 2.18246338 -0.02521729 3.3067627 -0.03820801 C5.07400696 -0.02606262 5.07400696 -0.02606262 6.87695312 -0.01367188 C8.08637573 -0.01749878 9.29579834 -0.02132568 10.54187012 -0.02526855 C13.10067578 -0.02799236 15.65950906 -0.02059865 18.21826172 -0.00390625 C22.14288197 0.01749458 26.06567131 -0.00369441 29.99023438 -0.02929688 C32.47331135 -0.02665368 34.95638718 -0.02152889 37.43945312 -0.01367188 C38.61761597 -0.0217688 39.79577881 -0.02986572 41.00964355 -0.03820801 C42.64649109 -0.01929504 42.64649109 -0.01929504 44.31640625 0 C45.75844421 0.00477356 45.75844421 0.00477356 47.22961426 0.00964355 C49.65820312 0.51757812 49.65820312 0.51757812 51.50769043 2.38586426 C52.65820312 4.51757812 52.65820312 4.51757812 52.40820312 7.14257812 C51.65820312 9.51757812 51.65820312 9.51757812 50.65820312 11.51757812 C47.70898396 12.50065118 45.77462305 12.6496308 42.69946289 12.6628418 C41.6915419 12.66922165 40.68362091 12.6756015 39.64515686 12.68217468 C38.01386086 12.68384392 38.01386086 12.68384392 36.34960938 12.68554688 C35.23134262 12.68887527 34.11307587 12.69220367 32.96092224 12.69563293 C30.5946392 12.7006982 28.22834901 12.70304138 25.86206055 12.70288086 C22.23865009 12.7050673 18.61554406 12.72322736 14.9921875 12.7421875 C12.6946625 12.74512148 10.39713605 12.74710624 8.09960938 12.74804688 C7.01410294 12.75523239 5.9285965 12.76241791 4.81019592 12.76982117 C3.79912277 12.76674454 2.78804962 12.76366791 1.74633789 12.76049805 C0.4142202 12.76263557 0.4142202 12.76263557 -0.94480896 12.76481628 C-3.56013556 12.4950575 -5.15955335 11.97756602 -7.34179688 10.51757812 C-8.27929688 7.64257812 -8.27929688 7.64257812 -8.34179688 4.51757812 C-6.1730045 0.48136008 -4.46978045 0.01479626 0 0 Z " fill="#323232" transform="translate(136.341796875,130.482421875)"/>
<path d="M0 0 C1.02794174 -0.00953201 2.05588348 -0.01906403 3.11497498 -0.02888489 C4.22437943 -0.02797348 5.33378387 -0.02706207 6.47680664 -0.02612305 C7.61726944 -0.03040817 8.75773224 -0.0346933 9.93275452 -0.03910828 C12.34611344 -0.04485469 14.75948969 -0.04534956 17.17285156 -0.04101562 C20.86887112 -0.03785726 24.56408931 -0.06130649 28.26000977 -0.08666992 C30.60310771 -0.088943 32.94620782 -0.08964637 35.28930664 -0.08862305 C36.39668686 -0.09783279 37.50406708 -0.10704254 38.64500427 -0.11653137 C39.67609818 -0.11030258 40.70719208 -0.10407379 41.76953125 -0.09765625 C42.6753746 -0.09828568 43.58121796 -0.0989151 44.51451111 -0.0995636 C47.47004014 0.35466445 48.84029418 1.17070352 50.94946289 3.2746582 C51.38696289 6.8371582 51.38696289 6.8371582 50.94946289 10.2746582 C47.62768176 12.48917896 46.57059935 12.53041437 42.69946289 12.54931641 C41.09264648 12.56361443 41.09264648 12.56361443 39.45336914 12.57820129 C37.71893555 12.57683418 37.71893555 12.57683418 35.94946289 12.57543945 C34.76223633 12.57972458 33.57500977 12.5840097 32.35180664 12.58842468 C29.84009438 12.5941712 27.32836548 12.5946659 24.81665039 12.59033203 C20.96480065 12.58717079 17.11371768 12.61063288 13.26196289 12.63598633 C10.82446386 12.63825907 8.38696276 12.63896294 5.94946289 12.63793945 C4.79317383 12.6471492 3.63688477 12.65635895 2.44555664 12.66584778 C0.83874023 12.65650459 0.83874023 12.65650459 -0.80053711 12.64697266 C-1.74413086 12.64760208 -2.68772461 12.64823151 -3.65991211 12.64888 C-6.05053711 12.2746582 -6.05053711 12.2746582 -7.88647461 10.9740448 C-9.05053711 9.2746582 -9.05053711 9.2746582 -8.92553711 5.7121582 C-7.56801928 0.37905246 -5.01211962 0.02551556 0 0 Z " fill="#323232" transform="translate(15.050537109375,53.725341796875)"/>
<path d="M0 0 C13.80669161 1.0620532 25.47338322 6.45023827 34.6875 16.9375 C37 20 37 20 37 21 C25.12 21 13.24 21 1 21 C1 15.39 1 9.78 1 4 C0.67 2.68 0.34 1.36 0 0 Z " fill="#FB4F4F" transform="translate(343,284)"/>
<path d="M0 0 C0 6.6 0 13.2 0 20 C-11.88 20 -23.76 20 -36 20 C-29.01130255 10.68173674 -20.81911578 3.58120462 -9.4375 0.25 C-6.30698559 -0.0710784 -3.14693689 0 0 0 Z " fill="#FB4F4F" transform="translate(89,285)"/>
<path d="M0 0 C11.55 0 23.1 0 35 0 C30.28225848 9.43548304 20.93699375 14.49216553 11.3203125 17.96875 C7.05978946 19.33414017 3.50034556 20.15133905 -1 20 C-0.835 19.113125 -0.67 18.22625 -0.5 17.3125 C0.164907 11.57767709 0 5.77323957 0 0 Z " fill="#FA4E4E" transform="translate(344,416)"/>
<path d="M0 0 C11.22 0 22.44 0 34 0 C34.33 6.6 34.66 13.2 35 20 C21.71438924 18.52382103 10.72511642 14.01090625 1.8125 3.5625 C0 1 0 1 0 0 Z " fill="#F94E4E" transform="translate(54,416)"/>
<path d="M0 0 C4.30501236 0.32786518 6.61101495 0.68854542 10.171875 3.3046875 C12.109375 6.0546875 12.109375 6.0546875 12.734375 8.5546875 C11.78249741 12.36219786 10.26116238 13.73908861 7.109375 16.0546875 C2.42149433 17.54550249 -0.85901958 17.49680411 -5.390625 15.5546875 C-8.5403292 12.4049833 -8.80930386 10.44602911 -8.890625 6.0546875 C-7.51272207 3.29888164 -5.51912507 2.56607504 -2.890625 1.0546875 C-1.890625 0.0546875 -1.890625 0.0546875 0 0 Z " fill="#F4FDFE" transform="translate(403.890625,196.9453125)"/>
<path d="M0 0 C1.6875 1.375 1.6875 1.375 3 3 C5.09989652 4.17574711 5.09989652 4.17574711 7 5 C7.3125 7.6875 7.3125 7.6875 7 11 C4.827365 13.57285724 3.02006162 15.48996919 0 17 C-4.28060859 17.04131862 -7.91763793 16.68637594 -11.5625 14.375 C-13.59145852 11.02280766 -13.54964081 8.84748569 -13 5 C-9.15915684 0.134932 -6.09160479 -0.42748104 0 0 Z " fill="#F7FDFE" transform="translate(342,197)"/>
<path d="M0 0 C3.6329906 0.29063925 3.71479537 0.83979537 6.125 3.25 C9.54380878 3.68644367 11.359147 3.806984 14.1875 1.75 C14.826875 1.255 15.46625 0.76 16.125 0.25 C18.8125 0 18.8125 0 21.125 0.25 C22.125 1.25 22.125 1.25 22.5 3.5 C21.96670601 7.41082263 20.08822385 8.76916143 17.125 11.25 C12.45915261 12.80528246 7.98741264 12.96685082 3.125 12.25 C0.14950271 10.72907686 -1.94511182 8.98133676 -3.875 6.25 C-4.375 3.4375 -4.375 3.4375 -3.875 1.25 C-2.875 0.25 -2.875 0.25 0 0 Z " fill="#323637" transform="translate(362.875,209.75)"/>
<path d="M0 0 C1.24652344 -0.01675781 2.49304688 -0.03351563 3.77734375 -0.05078125 C7.0625 0.3125 7.0625 0.3125 8.9765625 1.64453125 C10.70009391 4.2918259 10.5096597 6.24626205 10.0625 9.3125 C7.86432239 11.48517671 6.47856104 12.25009084 3.40625 12.7109375 C2.4678125 12.70320312 1.529375 12.69546875 0.5625 12.6875 C-0.84515625 12.69910156 -0.84515625 12.69910156 -2.28125 12.7109375 C-5.36609388 12.24821092 -6.75273892 11.52266528 -8.9375 9.3125 C-9.3125 5.75 -9.3125 5.75 -8.9375 2.3125 C-6.07413629 -0.55086371 -3.98521654 0.01233813 0 0 Z " fill="#323232" transform="translate(104.9375,130.6875)"/>
<path d="M0 0 C1.40765625 -0.01160156 1.40765625 -0.01160156 2.84375 -0.0234375 C5.91606104 0.43740916 7.30182239 1.20232329 9.5 3.375 C9.94949185 6.4572298 10.15196151 8.40500848 8.37890625 11.04296875 C5.6048547 13.00960405 3.35894207 12.7366737 0 12.6875 C-1.1446875 12.68363281 -2.289375 12.67976563 -3.46875 12.67578125 C-6.5 12.375 -6.5 12.375 -9.5 10.375 C-9.9375 6.9375 -9.9375 6.9375 -9.5 3.375 C-6.51325581 0.3605366 -4.16158389 -0.03429877 0 0 Z " fill="#333333" transform="translate(89.5,53.625)"/>
<path d="M0 0 C2.64 0.33 5.28 0.66 8 1 C9.23102992 4.69308976 8.87175152 7.88050712 8.5625 11.6875 C8.51029297 12.38939453 8.45808594 13.09128906 8.40429688 13.81445312 C8.27492135 15.54338054 8.13817469 17.27175355 8 19 C4.7 19 1.4 19 -2 19 C-2.05394705 16.39555652 -2.09364469 13.79223002 -2.125 11.1875 C-2.14175781 10.44951172 -2.15851563 9.71152344 -2.17578125 8.95117188 C-2.21074628 5.08753574 -2.19397555 3.29096332 0 0 Z " fill="#AFE56A" transform="translate(101,285)"/>
<path d="M0 0 C1.64574566 -0.02688151 3.29161413 -0.04634123 4.9375 -0.0625 C5.85402344 -0.07410156 6.77054687 -0.08570313 7.71484375 -0.09765625 C10 0 10 0 11 1 C11.41654639 7.22882157 11.57708209 13.20156531 9 19 C6.66705225 19.04241723 4.33297433 19.04092937 2 19 C0.48578999 17.48578999 0.78690144 16.07527232 0.68359375 13.96484375 C0.64169922 13.15595703 0.59980469 12.34707031 0.55664062 11.51367188 C0.51732422 10.66353516 0.47800781 9.81339844 0.4375 8.9375 C0.39431641 8.08349609 0.35113281 7.22949219 0.30664062 6.34960938 C0.20023298 4.23327963 0.09958269 2.11666187 0 0 Z " fill="#AEE46A" transform="translate(323,416)"/>
<path d="M0 0 C3.3 0 6.6 0 10 0 C10 5.94 10 11.88 10 18 C7.29120665 19.35439668 4.99066732 19.06501451 2 19 C-0.44989101 15.25764681 -0.23086143 11.55774581 -0.125 7.25 C-0.11597656 6.55261719 -0.10695313 5.85523438 -0.09765625 5.13671875 C-0.07419888 3.42433042 -0.03833104 1.71211996 0 0 Z " fill="#B0E66A" transform="translate(99,416)"/>
<path d="M0 0 C2.77796325 2.77796325 2.94438557 4.85826856 3.1328125 8.7265625 C3.13023437 9.68304688 3.12765625 10.63953125 3.125 11.625 C3.12757813 12.58664062 3.13015625 13.54828125 3.1328125 14.5390625 C3 17 3 17 2 19 C-1.3 19 -4.6 19 -8 19 C-8.08071788 16.20775927 -8.14035408 13.41783434 -8.1875 10.625 C-8.21263672 9.8309375 -8.23777344 9.036875 -8.26367188 8.21875 C-8.29004405 6.14413852 -8.15486462 4.06899135 -8 2 C-4.77626323 -0.14915785 -3.73296326 -0.38286803 0 0 Z " fill="#AFE56A" transform="translate(331,285)"/>
<path d="M0 0 C-1.1929123 6.68030888 -3.30229786 12.72150503 -7.375 18.1875 C-10 20 -10 20 -13.3125 19.8125 C-14.199375 19.544375 -15.08625 19.27625 -16 19 C-15.37224617 14.85835585 -13.99258094 11.55230761 -12.125 7.8125 C-11.61195313 6.76707031 -11.09890625 5.72164063 -10.5703125 4.64453125 C-7.76104844 -0.08649306 -5.15784125 -0.22923739 0 0 Z " fill="#AFE56A" transform="translate(294,430)"/>
<path d="M0 0 C1 3 1 3 0.109375 5.26953125 C-0.56351563 6.52830078 -0.56351563 6.52830078 -1.25 7.8125 C-1.71792969 8.69679688 -2.18585938 9.58109375 -2.66796875 10.4921875 C-3.10753906 11.31976563 -3.54710937 12.14734375 -4 13 C-4.515625 14.134375 -5.03125 15.26875 -5.5625 16.4375 C-7.13077168 19.23311473 -8.15271944 20.53568429 -11 22 C-12.99949771 22.04482062 -15.00060275 22.04909843 -17 22 C-15.76555663 19.07650748 -14.50976951 16.16265859 -13.25 13.25 C-12.72792969 12.0125 -12.72792969 12.0125 -12.1953125 10.75 C-7.16706731 -0.79634081 -7.16706731 -0.79634081 0 0 Z " fill="#AEE469" transform="translate(219,272)"/>
<path d="M0 0 C2.125 0 2.125 0 5 1 C10.00153686 6.0140407 14 12.7927221 14 20 C10.4157326 20.33342022 8.5390933 20.35049409 5.4765625 18.359375 C2.70065159 15.71481634 1.51484716 13.53154324 0.0625 10 C-0.37964844 8.96875 -0.82179688 7.9375 -1.27734375 6.875 C-2 4 -2 4 -1.12890625 1.625 C-0.75636719 1.08875 -0.38382812 0.5525 0 0 Z " fill="#AFE56A" transform="translate(280,270)"/>
<path d="M0 0 C0.763125 0.20625 1.52625 0.4125 2.3125 0.625 C2.3125 4.72080524 1.63659637 6.93408995 0.125 10.6875 C-0.28105469 11.73035156 -0.68710938 12.77320313 -1.10546875 13.84765625 C-2.92410732 17.04037729 -4.37533488 18.11382466 -7.6875 19.625 C-10.5 19.8125 -10.5 19.8125 -12.6875 19.625 C-12.38246138 12.76163107 -9.4675374 7.29505611 -5.6875 1.625 C-2.6875 -0.375 -2.6875 -0.375 0 0 Z " fill="#AFE56A" transform="translate(151.6875,270.375)"/>
<path d="M0 0 C3.94385742 0.18343523 5.66105306 0.69333372 8.625 3.375 C11.89186806 7.68853452 13.37559963 12.89992733 15 18 C13 20 13 20 10.625 20.4375 C8 20 8 20 6.01171875 17.85546875 C3.95456342 14.93550652 2.55426861 12.17010981 1.1875 8.875 C0.52814453 7.32425781 0.52814453 7.32425781 -0.14453125 5.7421875 C-1 3 -1 3 0 0 Z " fill="#B0E66A" transform="translate(140,430)"/>
<path d="M0 0 C3.67346264 0.25046336 5.46690604 0.42999953 8.03125 3.171875 C10.04536794 6.0651714 11.41539058 8.80424058 12.75 12.0625 C13.17796875 13.08472656 13.6059375 14.10695313 14.046875 15.16015625 C15 18 15 18 15 22 C12.8125 22.375 12.8125 22.375 10 22 C4.71273032 17.24145729 2.18391263 10.67255009 0 4 C0 2.68 0 1.36 0 0 Z " fill="#B0E66A" transform="translate(204,426)"/>
<path d="M0 0 C8.2653753 1.337046 8.2653753 1.337046 11.5625 4.3125 C13 7 13 7 13 12 C20.26 12 27.52 12 35 12 C35 12.33 35 12.66 35 13 C23.12 13 11.24 13 -1 13 C-0.67 8.71 -0.34 4.42 0 0 Z " fill="#E23636" transform="translate(345,292)"/>
<path d="M0 0 C0.495 6.435 0.495 6.435 1 13 C-10.88 13 -22.76 13 -35 13 C-35 12.67 -35 12.34 -35 12 C-27.41 12 -19.82 12 -12 12 C-11.67 9.69 -11.34 7.38 -11 5 C-9.2578125 3.22265625 -9.2578125 3.22265625 -7.125 2.0625 C-6.42632812 1.66160156 -5.72765625 1.26070313 -5.0078125 0.84765625 C-3 0 -3 0 0 0 Z " fill="#DD3636" transform="translate(88,292)"/>
<path d="M0 0 C4.62 0 9.24 0 14 0 C13.76785426 4.02385944 13.60783179 6.32065859 10.875 9.375 C7.53422786 11.26326251 4.80157771 11.70183704 1 12 C0.67 8.04 0.34 4.08 0 0 Z " fill="#F43232" transform="translate(344,416)"/>
<path d="M0 0 C2.31 0 4.62 0 7 0 C7.36082877 2.64508361 7.71395352 5.29079547 8.0625 7.9375 C8.2181543 9.06961914 8.2181543 9.06961914 8.37695312 10.22460938 C8.62665638 12.14474128 8.81790281 14.07228144 9 16 C8 17 8 17 5.0625 17.25 C4.051875 17.1675 3.04125 17.085 2 17 C-0.49118953 13.2632157 -0.2065226 11.25548181 -0.125 6.8125 C-0.10695312 5.54019531 -0.08890625 4.26789063 -0.0703125 2.95703125 C-0.04710937 1.98121094 -0.02390625 1.00539063 0 0 Z " fill="#B1E86B" transform="translate(165,416)"/>
<path d="M0 0 C2.31 0.33 4.62 0.66 7 1 C6.34 6.28 5.68 11.56 5 17 C2.69 17 0.38 17 -2 17 C-2.05383848 14.54137599 -2.09359038 12.0839245 -2.125 9.625 C-2.14175781 8.92632812 -2.15851563 8.22765625 -2.17578125 7.5078125 C-2.19344267 5.67102514 -2.10303261 3.83398037 -2 2 C-1.34 1.34 -0.68 0.68 0 0 Z " fill="#B1E76B" transform="translate(167,287)"/>
<path d="M0 0 C3.96 0 7.92 0 12 0 C12 3.96 12 7.92 12 12 C6.37436623 11.59816902 3.76488291 10.03380312 0 6 C0 4.02 0 2.04 0 0 Z " fill="#F33232" transform="translate(76,416)"/>
<path d="M0 0 C3 0.25 3 0.25 5 2.25 C5.55186722 8.32053942 5.55186722 8.32053942 3.8125 11.25 C2 12.25 2 12.25 -0.5625 12.0625 C-3 11.25 -3 11.25 -5 9.25 C-5.25 5.75 -5.25 5.75 -5 2.25 C-3 0.25 -3 0.25 0 0 Z " fill="#313F41" transform="translate(397,188.75)"/>
<path d="M0 0 C3 -0.3125 3 -0.3125 6 0 C8 2 8 2 8.3125 5.4375 C8 9 8 9 6.8125 11 C5 12 5 12 2.4375 11.8125 C0 11 0 11 -2 9 C-2.34490322 4.94738713 -2.30163882 3.45245824 0 0 Z " fill="#323E40" transform="translate(344,189)"/>
<path d="M0 0 C3.0625 0.3125 3.0625 0.3125 5 1.4375 C6.0625 3.3125 6.0625 3.3125 5.9375 6.375 C5.0625 9.3125 5.0625 9.3125 2.0625 11.3125 C-1.25990324 10.9883631 -2.54526303 10.70473697 -4.9375 8.3125 C-5.1875 5.3125 -5.1875 5.3125 -4.9375 2.3125 C-2.9375 0.3125 -2.9375 0.3125 0 0 Z " fill="#3F3C39" transform="translate(269.9375,236.6875)"/>
<path d="M0 0 C3.0625 0.3125 3.0625 0.3125 5 1.4375 C6.0625 3.3125 6.0625 3.3125 5.9375 6.375 C5.0625 9.3125 5.0625 9.3125 2.0625 11.3125 C-1.25990324 10.9883631 -2.54526303 10.70473697 -4.9375 8.3125 C-5.1875 5.3125 -5.1875 5.3125 -4.9375 2.3125 C-2.9375 0.3125 -2.9375 0.3125 0 0 Z " fill="#3F3C39" transform="translate(235.9375,235.6875)"/>
<path d="M0 0 C1.875 1.125 1.875 1.125 3 3 C2.77669287 6.64734979 2.61627165 8.38372835 0 11 C-2.79844834 11.35877543 -4.403308 11.33812547 -6.875 9.9375 C-8.67936761 6.82997801 -7.81177938 4.37200667 -7 1 C-4.45132831 -0.27433584 -2.82594567 -0.27570202 0 0 Z " fill="#3D3B38" transform="translate(165,470)"/>
<path d="M0 0 C2.4375 0.75 2.4375 0.75 4.4375 2.75 C3.86057692 9.32692308 3.86057692 9.32692308 2.4375 10.75 C-2.78098739 11.20378151 -2.78098739 11.20378151 -5.5 9.625 C-6.5625 7.75 -6.5625 7.75 -6.4375 4.6875 C-5.31039351 0.90364248 -4.04478927 -0.39461359 0 0 Z " fill="#3D3B38" transform="translate(126.5625,463.25)"/>
<path d="M0 0 C2.4375 0.75 2.4375 0.75 4.4375 2.75 C4.75 5.75 4.75 5.75 4.4375 8.75 C1.20496204 10.90502531 0.18599077 11.21856135 -3.5625 10.75 C-5.4375 9.625 -5.4375 9.625 -6.5625 7.75 C-6.4375 4.6875 -6.4375 4.6875 -5.5625 1.75 C-2.5625 -0.25 -2.5625 -0.25 0 0 Z " fill="#3E3C38" transform="translate(344.5625,454.25)"/>
<path d="M0 0 C2.5625 0.3125 2.5625 0.3125 4.4375 1.375 C6.21032183 4.42819315 5.25485306 6.97661708 4.5625 10.3125 C-1.82457103 11.63811852 -1.82457103 11.63811852 -4.4375 10.25 C-5.9390177 7.34080946 -5.29001616 5.3946738 -4.4375 2.3125 C-2.4375 0.3125 -2.4375 0.3125 0 0 Z " fill="#3D3B38" transform="translate(88.4375,453.6875)"/>
<path d="M0 0 C2.4375 0.75 2.4375 0.75 4.4375 2.75 C4.75 5.75 4.75 5.75 4.4375 8.75 C1.20496204 10.90502531 0.18599077 11.21856135 -3.5625 10.75 C-5.4375 9.625 -5.4375 9.625 -6.5625 7.75 C-6.4375 4.6875 -6.4375 4.6875 -5.5625 1.75 C-2.5625 -0.25 -2.5625 -0.25 0 0 Z " fill="#3E3C38" transform="translate(344.5625,255.25)"/>
<path d="M0 0 C1.8125 1.1875 1.8125 1.1875 3 3 C3.4334014 5.88934264 3.42525784 7.35092224 1.8125 9.8125 C-0.64907776 11.42525784 -2.11065736 11.4334014 -5 11 C-6.8125 9.8125 -6.8125 9.8125 -8 8 C-8.4334014 5.11065736 -8.42525784 3.64907776 -6.8125 1.1875 C-4.35092224 -0.42525784 -2.88934264 -0.4334014 0 0 Z " fill="#3C3A37" transform="translate(128,246)"/>
<path d="M0 0 C2.875 0.6875 2.875 0.6875 3.875 1.6875 C4.0625 5.125 4.0625 5.125 3.875 8.6875 C1.875 10.6875 1.875 10.6875 -1.125 10.9375 C-4.125 10.6875 -4.125 10.6875 -6.125 8.6875 C-6.4375 5.1875 -6.4375 5.1875 -6.125 1.6875 C-3.125 -0.3125 -3.125 -0.3125 0 0 Z " fill="#3D3B38" transform="translate(308.125,465.3125)"/>
<path d="M0 0 C2.4375 0.75 2.4375 0.75 4.4375 2.75 C4.0625 6.375 4.0625 6.375 3.4375 9.75 C-2.94957103 11.07561852 -2.94957103 11.07561852 -5.5625 9.6875 C-7.07889353 6.74948754 -6.48543717 4.84843192 -5.5625 1.75 C-2.5625 -0.25 -2.5625 -0.25 0 0 Z " fill="#3C3A37" transform="translate(89.5625,255.25)"/>
<path d="M0 0 C2.875 0.6875 2.875 0.6875 3.875 1.6875 C4.0625 5.125 4.0625 5.125 3.875 8.6875 C1.875 10.6875 1.875 10.6875 -1.125 10.9375 C-4.125 10.6875 -4.125 10.6875 -6.125 8.6875 C-6.4375 5.1875 -6.4375 5.1875 -6.125 1.6875 C-3.125 -0.3125 -3.125 -0.3125 0 0 Z " fill="#3D3B38" transform="translate(308.125,244.3125)"/>
<path d="M0 0 C1.875 1.125 1.875 1.125 3 3 C2.875 6.0625 2.875 6.0625 2 9 C-1 11 -1 11 -3.5625 10.75 C-6 10 -6 10 -8 8 C-7.75 4.4375 -7.75 4.4375 -7 1 C-4.45132831 -0.27433584 -2.82594567 -0.27570202 0 0 Z " fill="#3C3A37" transform="translate(202,236)"/>
<path d="M0 0 C1.7325 0.1546875 1.7325 0.1546875 3.5 0.3125 C5.5 3.3125 5.5 3.3125 5.1875 6.4375 C4.5 9.3125 4.5 9.3125 3.5 10.3125 C0.0625 10.5625 0.0625 10.5625 -3.5 10.3125 C-5.64915785 7.08876323 -5.88286803 6.04546326 -5.5 2.3125 C-3.5 0.3125 -3.5 0.3125 0 0 Z " fill="#3C3A37" transform="translate(162.5,239.6875)"/>
<path d="M0 0 C1.7325 0.1546875 1.7325 0.1546875 3.5 0.3125 C5.5 3.3125 5.5 3.3125 5.25 5.875 C4.5 8.3125 4.5 8.3125 2.5 10.3125 C-0.5 10.5625 -0.5 10.5625 -3.5 10.3125 C-5.5 8.3125 -5.5 8.3125 -5.75 5.3125 C-5.37833659 0.85253908 -4.40663794 0.39344982 0 0 Z " fill="#3B3937" transform="translate(199.5,473.6875)"/>
<path d="M0 0 C3.0625 0.3125 3.0625 0.3125 5 1.5 C6.0625 3.3125 6.0625 3.3125 5.875 5.875 C5.0625 8.3125 5.0625 8.3125 3.0625 10.3125 C0.0625 10.5625 0.0625 10.5625 -2.9375 10.3125 C-4.9375 8.3125 -4.9375 8.3125 -5.1875 5.3125 C-4.84687504 1.2250005 -4.07761768 0.43378911 0 0 Z " fill="#3A3836" transform="translate(235.9375,473.6875)"/>
<path d="M0 0 C3.0625 0.3125 3.0625 0.3125 5 1.5 C6.0625 3.3125 6.0625 3.3125 5.875 5.875 C5.0625 8.3125 5.0625 8.3125 3.0625 10.3125 C0.0625 10.5625 0.0625 10.5625 -2.9375 10.3125 C-4.9375 8.3125 -4.9375 8.3125 -5.1875 5.3125 C-4.84687504 1.2250005 -4.07761768 0.43378911 0 0 Z " fill="#393836" transform="translate(269.9375,472.6875)"/>
<path d="M0 0 C1.65 0.33 3.3 0.66 5 1 C5 2.65 5 4.3 5 6 C3.125 6.625 3.125 6.625 1 7 C0.34 6.34 -0.32 5.68 -1 5 C-0.625 2.375 -0.625 2.375 0 0 Z " fill="#F2F9EB" transform="translate(221,419)"/>
<path d="M0 0 C1.65 0.33 3.3 0.66 5 1 C4.67 2.65 4.34 4.3 4 6 C2.35 5.67 0.7 5.34 -1 5 C-0.67 3.35 -0.34 1.7 0 0 Z " fill="#FAFDF8" transform="translate(221,295)"/>
<path d="M0 0 C0.66 0 1.32 0 2 0 C2.33 1.98 2.66 3.96 3 6 C0.03 6 -2.94 6 -6 6 C-4 4 -2 2 0 0 Z " fill="#9BE4EC" transform="translate(254,204)"/>
<path d="M0 0 C2.31 0 4.62 0 7 0 C6.34 1.32 5.68 2.64 5 4 C3.35 3.67 1.7 3.34 0 3 C0 2.01 0 1.02 0 0 Z " fill="#F5FAF0" transform="translate(249,416)"/>
<path d="M0 0 C2.31 0 4.62 0 7 0 C6.67 1.32 6.34 2.64 6 4 C4.35 3.67 2.7 3.34 1 3 C0.67 2.01 0.34 1.02 0 0 Z " fill="#F5FAEF" transform="translate(179,416)"/>
<path d="M0 0 C1.98 0 3.96 0 6 0 C5.67 1.32 5.34 2.64 5 4 C3.35 3.67 1.7 3.34 0 3 C0 2.01 0 1.02 0 0 Z " fill="#F4FAEE" transform="translate(305,416)"/>
<path d="M0 0 C2.31 0 4.62 0 7 0 C6.34 1.32 5.68 2.64 5 4 C3.0625 3.6875 3.0625 3.6875 1 3 C0.67 2.01 0.34 1.02 0 0 Z " fill="#F4FAEE" transform="translate(141,416)"/>
<path d="M0 0 C1.9375 0.3125 1.9375 0.3125 4 1 C4.33 1.99 4.66 2.98 5 4 C2.69 4 0.38 4 -2 4 C-1.34 2.68 -0.68 1.36 0 0 Z " fill="#F5FAF0" transform="translate(251,300)"/>
<path d="M0 0 C1.9375 0.3125 1.9375 0.3125 4 1 C4.33 1.99 4.66 2.98 5 4 C2.69 4 0.38 4 -2 4 C-1.34 2.68 -0.68 1.36 0 0 Z " fill="#F6FBF1" transform="translate(181,300)"/>
<path d="M0 0 C1.98 0 3.96 0 6 0 C5.67 1.32 5.34 2.64 5 4 C3.0625 3.6875 3.0625 3.6875 1 3 C0.67 2.01 0.34 1.02 0 0 Z " fill="#F9FCF5" transform="translate(285,416)"/>
<path d="M0 0 C1.98 0 3.96 0 6 0 C5.34 1.32 4.68 2.64 4 4 C2.68 3.67 1.36 3.34 0 3 C0 2.01 0 1.02 0 0 Z " fill="#F9FCF5" transform="translate(122,416)"/>
<path d="M0 0 C1.9375 0.3125 1.9375 0.3125 4 1 C4.33 1.99 4.66 2.98 5 4 C3.02 4 1.04 4 -1 4 C-0.67 2.68 -0.34 1.36 0 0 Z " fill="#F3F9EB" transform="translate(306,300)"/>
<path d="M0 0 C1.32 0.33 2.64 0.66 4 1 C4 1.99 4 2.98 4 4 C2.02 4 0.04 4 -2 4 C-1.34 2.68 -0.68 1.36 0 0 Z " fill="#F1F8E9" transform="translate(143,300)"/>
<path d="M0 0 C1.9375 0.3125 1.9375 0.3125 4 1 C4.33 1.99 4.66 2.98 5 4 C3.02 4 1.04 4 -1 4 C-0.67 2.68 -0.34 1.36 0 0 Z " fill="#F3F9EC" transform="translate(123,300)"/>
<path d="M0 0 C1.65 0 3.3 0 5 0 C4.67 1.32 4.34 2.64 4 4 C2.68 3.67 1.36 3.34 0 3 C0 2.01 0 1.02 0 0 Z " fill="#FE8C8C" transform="translate(347,416)"/>
<path d="M0 0 C1.65 0 3.3 0 5 0 C4.67 1.32 4.34 2.64 4 4 C2.68 3.67 1.36 3.34 0 3 C0 2.01 0 1.02 0 0 Z " fill="#FE8D8D" transform="translate(81,416)"/>
<path d="M0 0 C1.98 0.495 1.98 0.495 4 1 C4 1.99 4 2.98 4 4 C2.35 4 0.7 4 -1 4 C-0.67 2.68 -0.34 1.36 0 0 Z " fill="#FD8686" transform="translate(348,300)"/>
<path d="M0 0 C1.98 0.495 1.98 0.495 4 1 C4 1.99 4 2.98 4 4 C2.35 4 0.7 4 -1 4 C-0.67 2.68 -0.34 1.36 0 0 Z " fill="#FD8787" transform="translate(82,300)"/>
<path d="M0 0 C1.65 0 3.3 0 5 0 C5 0.99 5 1.98 5 3 C3.02 3 1.04 3 -1 3 C-0.67 2.01 -0.34 1.02 0 0 Z " fill="#FBFDF8" transform="translate(286,301)"/>
</svg>
